<?xml version="1.0" encoding="UTF-8"?><svg id="Layer_1" xmlns="http://www.w3.org/2000/svg" viewBox="0 0 460.86 380.65"><path d="m121.36,36.58c-29.15,22.66-76.62,22.66-79.43,57.92-2.81,35.26,30.99,66.73,69.24,69.78,38.25,3.05,51.25-24.68,54.06-59.95,2.81-35.26-12.84-91.88-43.87-67.76Zm-13.19,84.67c-5.14,4.98-13.61,8.22-18.6,3.08-4.98-5.14-1.23-16.44,3.91-21.42,5.14-4.98,2.07,6.08,7.05,11.22,4.98,5.14,12.78,2.14,7.64,7.12Zm7.63-28.87s0,.03-.01.05c-.01.03-.02.07-.04.1-.02.04-.03.09-.05.13,0,0,0,0,0,.01-.01.03-.03.05-.04.08-.02.04-.04.09-.06.13-.02.04-.04.07-.07.11-.02.03-.04.06-.06.1-.03.04-.06.09-.1.13-.02.02-.03.04-.05.06-.04.05-.09.1-.14.15,0,0-.02.02-.03.03-.24.23-.52.41-.82.53-.02,0-.04.01-.06.02-.06.02-.11.04-.17.06-.02,0-.04,0-.06.01-.06.02-.12.03-.18.04,0,0,0,0-.01,0-.37.07-.76.05-1.14-.07,0,0,0,0-.01,0-.04-.01-.07-.03-.11-.04-.04-.02-.08-.03-.13-.05,0,0,0,0-.01,0l-20.03-8.66c-1.25-.54-1.82-1.99-1.28-3.23.54-1.25,1.99-1.82,3.23-1.28l12.93,5.59-7.66-12.5c-.85-1.06-.68-2.61.38-3.46,1.06-.85,2.61-.68,3.46.38l11.87,19.37s0,0,0,0c.04.05.07.09.1.14.01.02.03.04.04.06.02.03.04.07.06.1.13.22.22.46.27.7,0,.03.01.05.02.08,0,.03,0,.06.01.09,0,.05.02.1.02.15,0,0,0,.01,0,.02.02.29,0,.58-.09.87Zm32.7,30.37l-11.13-9.55,3.47,13.65c.33,1.32-.46,2.65-1.78,2.99-1.32.33-2.65-.46-2.99-1.78l-5.38-21.15s0,0,0-.01c-.01-.04-.02-.09-.03-.13,0-.04-.02-.08-.02-.11,0,0,0,0,0-.01-.05-.39-.01-.78.11-1.14,0,0,0,0,0-.01.02-.06.04-.11.07-.17,0-.02.01-.04.02-.05.02-.05.05-.1.08-.16.01-.02.02-.04.03-.06.17-.28.39-.53.66-.73.01,0,.02-.01.03-.02.05-.04.11-.08.17-.11.02-.01.05-.02.07-.04.05-.03.09-.05.14-.07.03-.02.07-.03.1-.04.04-.02.08-.03.12-.05.05-.02.09-.03.14-.04.03,0,.05-.02.08-.03,0,0,0,0,.01,0,.05-.01.09-.02.14-.03.04,0,.07-.02.11-.02.02,0,.03,0,.05,0,.3-.04.59-.02.88.05,0,0,.01,0,.02,0,.05.01.1.03.14.04.03,0,.06.02.09.03.03,0,.05.02.08.03.23.09.45.22.65.38.03.02.06.05.09.07.02.02.04.04.05.05.04.04.08.08.12.12,0,0,0,0,0,0l17.24,14.8c.91,1.01.83,2.56-.18,3.47s-2.56.83-3.47-.18Z" style="fill:#fbd2d7;"/><path d="m115.25,25.92C150.54.03,168.67,61.23,165.63,99.28c-3.04,38.06-17.72,67.93-61.38,64.45-43.65-3.48-82.37-37.62-79.33-75.67,3.04-38.06,57.19-37.82,90.33-62.14Z" style="fill:none; stroke:#fff; stroke-miterlimit:10; stroke-width:9px;"/><path d="m196.82,174.91c3.95-3.99,8.39-7.53,13.17-10.61l-48.96-38.85c-1.55,5.13-3.49,9.9-5.89,14.22l41.46,35.47c.08-.08.14-.16.22-.24Z" style="fill:#fbd2d7;"/><path d="m318.6,227.5c14.9-31.2,71.88-18.48,95.26,14.51,23.38,33,30.43,68.18-2.57,91.56-33,23.38-86.12,20.85-109.5-12.15-23.38-33-1.67-55.22,16.81-93.92Z" style="fill:none; stroke:#fff; stroke-miterlimit:10; stroke-width:9px;"/><path d="m310.25,243.85l-2.07-1.64c-1.4,4.27-2.83,8.72-4.21,13.38,1.98-3.77,4.1-7.67,6.27-11.74Z" style="fill:#fbd2d7;"/><path d="m444.84,350.64l-27.54-21.85c-1.84,1.64-3.83,3.24-6.01,4.78-5.6,3.97-11.79,7.17-18.3,9.62l34.01,29.1c3.9,3.31,8.83,3.97,10.9,1.44l10.44-12.72c2.06-2.51.48-7.19-3.51-10.38Z" style="fill:#fbd2d7;"/><path d="m302.88,168.08c-27.75-27.42-78.64-20.92-106.06,6.83-27.42,27.75-14.82,59.99,12.93,87.41,27.75,27.42,84.02,29.95,92.93-2.2,11.06-39.87,27.96-64.62.21-92.05Zm-78.43-1.97c3.26-2.58,8.31-2.03,11.01,1.22,2.67,3.2,2.4,8.15-.6,10.92-1.27,1.18-2.92,1.26-4.06.19-1.13-1.06-1.28-2.62-.19-3.87,1.03-1.18,1.55-2.38.42-3.66-1.07-1.21-2.3-.85-3.55-.09-1.46.88-2.91.54-3.8-.73-.9-1.28-.58-2.92.77-3.99Zm13.97,31.26c-.97,1.16-2.49,1.18-4.05.23-.55-.33-1.32-.28-1.99-.41-.03.72-.06,1.43-.07,2.15,0,.11.1.23.15.34.59,1.3.36,2.5-.72,3.39-1.08.88-2.24.8-3.49.1-.65-.37-1.52-.36-2.28-.52.04.79-.11,1.64.15,2.34.56,1.5.34,2.73-.94,3.66-1.21.87-2.76.52-3.82-.75-2.36-2.81-2.06-7.32,1.01-9.52,2.25-1.61,5.11-2.41,5.74-4.99,3.19-2.76,7.2-2.69,9.84-.22,1.32,1.24,1.51,2.96.47,4.2Zm26.46,16.08c-1.27,1.18-2.92,1.27-4.06.22-1.18-1.09-1.28-2.65-.1-4.01,1-1.15,1.37-2.32.33-3.52-1.06-1.22-2.29-.87-3.55-.12-1.53.91-3.06.52-3.91-.85-.78-1.26-.44-2.8.85-3.83,3.25-2.6,8.3-2.05,11.01,1.19,2.68,3.19,2.42,8.14-.57,10.92Z" style="fill:#fff;"/><path d="m65.04,49.27L10.95,6.35C7.08,3.26,2.56.49.56,2.93c-2,2.43,1.75,5.97,5.51,9.17l48.59,41.58c3.32-1.54,6.8-2.99,10.39-4.41Z" style="fill:#fbd2d7;"/><path d="m348.63,266.64c-.72-.12-1.43-.23-2.13-.35-2.5-.43-5.01-.84-7.5-1.31-1.51-.28-2.99-.71-4.38-1.37-2.25-1.06-3.75-2.76-4.28-5.22-.46-2.11.04-4.01,1.63-5.52,1.47-1.4,3.24-1.81,5.2-1.28.61.16,1.18.44,1.77.67.67.27,1.33-.13,1.39-.85.01-.16.01-.33.02-.49.06-1.15.29-2.26.93-3.24,1.07-1.65,2.64-2.47,4.59-2.5,2.08-.03,3.7.95,4.97,2.54,1.18,1.48,1.63,3.19,1.56,5.05-.07,1.96-.55,3.84-1.12,5.7-.82,2.66-1.69,5.3-2.54,7.95-.02.06-.05.13-.08.21Z" style="fill:#fff;"/><path d="m378.54,268.9c-.25-.68-.5-1.36-.74-2.03-.84-2.39-1.71-4.78-2.52-7.19-.49-1.46-.84-2.95-.94-4.49-.17-2.48.58-4.62,2.47-6.28,1.62-1.43,3.52-1.92,5.61-1.27,1.94.6,3.16,1.94,3.65,3.91.15.61.19,1.25.27,1.87.09.72.76,1.1,1.42.8.15-.07.29-.15.44-.22,1.03-.51,2.11-.85,3.28-.77,1.97.13,3.45,1.1,4.42,2.78,1.05,1.8.98,3.69.2,5.58-.72,1.75-1.99,2.97-3.65,3.82-1.74.89-3.62,1.4-5.52,1.8-2.72.58-5.45,1.11-8.18,1.66-.07.01-.13.02-.22.03Z" style="fill:#fff;"/><path d="m390.85,286.55c.16-2.02-14.21.44-30.61-.87s-28.62-5.89-28.78-3.87,11.97,7.64,28.38,8.95c8.39.67,16.27.08,21.99-.93.22,2.86.91,6.39,2.04,6.48,1.37.11,2.91-4.88,3.39-7.75,2.24-.7,3.55-1.42,3.59-2.02Z" style="fill:#fbd2d7;"/><path d="m65.65,25.13h0c-.54-2.67,1.15-5.29,3.8-5.92,12.51-3.02,19.42-6.98,27.92-11.84,2.29-1.31,4.62-2.65,7.18-4.03s5.64-.37,6.93,2.17h0c1.24,2.45.3,5.44-2.11,6.75s-4.73,2.64-6.96,3.91c-8.89,5.09-16.68,9.55-30.62,12.91-2.79.67-5.57-1.13-6.13-3.94Z" style="fill:#fff;"/><path d="m110.69,357.25c-.31-.57-.62-1.14-.94-1.71-2.16-3.88-1.35-8.82,1.9-11.67,3.46-3.03,8.33-3.26,11.95-.56,3.62,2.7,4.89,7.64,2.98,11.6-1.96,4.07-6.45,6.22-10.84,5.18-.62-.15-1.26-.27-1.88-.4-1.06-.81-2.12-1.63-3.18-2.44Zm4.63-8.54c-1.14,1.38-.91,3.69.49,4.85,1.42,1.17,3.63.93,4.81-.53,1.22-1.5,1-3.56-.49-4.77-1.47-1.19-3.63-.98-4.81.45Z" style="fill:#fbd2d7;"/><path d="m134.9,294c4.86,3.78,5.71,10.69,1.92,15.53-3.77,4.81-10.8,5.66-15.56,1.88-4.69-3.73-5.56-10.72-1.91-15.45,3.71-4.82,10.73-5.71,15.56-1.95Zm-3.72,4.73c-2.11-1.62-5.37-1.23-7.01.82-1.67,2.08-1.24,5.54.88,7.18,2.16,1.66,5.48,1.18,7.12-1.04,1.61-2.17,1.16-5.31-.99-6.96Z" style="fill:#fff;"/><path d="m9.78,292.52c1.93-1.12,3.13-2.02,4.46-2.57,25.14-10.53,50.29-21.01,75.43-31.53,2.91-1.22,5.9-1.44,7.44,1.36.91,1.66.71,4.52-.07,6.41-.57,1.36-2.83,2.22-4.5,2.92-24.44,10.27-48.91,20.48-73.38,30.68-1.24.52-2.71,1.38-3.82,1.11-1.85-.45-4.12-1.26-5.05-2.7-.92-1.41-.4-3.8-.5-5.66Z" style="fill:#fff;"/><path d="m120.79,216.66c3.4,2.58,4.08,7.5,1.5,10.87-2.56,3.35-7.56,3.99-10.9,1.39-3.29-2.56-3.96-7.41-1.48-10.75,2.51-3.39,7.49-4.08,10.88-1.51Zm-6.13,7.96c1.28-.32,2.36-.28,2.68-.76.35-.51-.02-1.5-.07-2.29-.83.07-1.86-.13-2.41.29-.39.3-.14,1.45-.19,2.75Z" style="fill:#fff;"/><path d="m179.5,324.45c.12.65.65,1.74.4,2.59-.26.87-1.2,1.98-2.01,2.14-2.13.42-4.38.62-6.54.41-.87-.08-2.11-1.36-2.29-2.26-.17-.9.62-2.78,1.27-2.91,2.56-.53,5.22-.56,7.85-.73.27-.02.57.32,1.31.76Z" style="fill:#fbd2d7;"/><path d="m89.37,208.55c.94-.49,1.55-1,2.22-1.12,1.83-.33,3.69-.6,5.54-.72,1.69-.11,2.79.8,3.11,2.48.3,1.59-.65,3.01-2.4,3.36-1.82.37-3.7.75-5.54.66-1-.05-2.26-.86-2.83-1.71-.47-.69-.1-1.95-.1-2.94Z" style="fill:#fbd2d7;"/><path d="m112.58,254.39c1.19.98,1.34,2.85.33,4.11-1.01,1.26-2.83,1.49-4.09.53-1.3-1-1.55-3.02-.52-4.28,1.05-1.29,2.96-1.45,4.28-.36Z" style="fill:#fbd2d7;"/><path d="m117.59,251.04c1.03-1.33,2.91-1.54,4.27-.48,1.17.91,1.4,2.91.46,4.13-.98,1.28-2.77,1.52-4.08.57-1.38-1.01-1.67-2.9-.65-4.22Z" style="fill:#fbd2d7;"/><path d="m52.22,239c-.73-1.2-1.48-2.25-2.03-3.4-1.76-3.7-.99-8.39,1.75-11.12,3.94-3.93,9.92-3.24,13.26,1.55,2.32,3.33,2.49,6.9,1.13,10.63-.12.34-.26.68-.42,1.13,4.01.11,7.51-.98,10.54-3.47.97-.8,2.02-1.19,3.26-.88,1.29.32,2.13,1.16,2.46,2.43.33,1.31.03,2.52-1.02,3.41-5.77,4.85-12.35,6.35-19.7,4.77-.63-.14-1.43-.07-2.01.2-5.35,2.45-10.64,2.01-15.87-.3-1.66-.73-2.31-2.72-1.62-4.36.72-1.7,2.54-2.53,4.34-1.85,1.89.71,3.79,1.32,5.93,1.26Zm6.88-3.3c1.12-1.64,1.64-3.24.91-5.03-.54-1.32-1.7-2.11-2.55-1.83-.92.3-1.61,1.84-1.33,3.11.38,1.65,1.49,2.74,2.96,3.75Z" style="fill:#fff;"/><path d="m85.82,306.23c.07.05.16.14.28.26.12.12.21.21.29.27.15.12.38.29.69.51.3.22.54.39.69.51.14-.19.33-.44.57-.74.3-.38.49-.62.57-.72.22-.28.5-.44.85-.46.35-.03.67.08.98.31s.49.52.55.87c.06.35-.02.66-.24.95.06-.07-.31.41-1.1,1.46.44.3.81.57,1.13.81.4.31.7.65.89,1.03.25.48.24.9-.03,1.24-.34.44-.74.59-1.2.45-.25-.08-.65-.32-1.19-.74-.32-.25-.7-.52-1.13-.81-.04.06-.13.17-.25.34s-.23.31-.31.42c-.86,1.12-1.67,1.39-2.43.81-.3-.23-.49-.52-.56-.87-.08-.35-.01-.67.21-.95.07-.09.19-.22.35-.39.16-.17.28-.31.36-.4l.44-.6c-.12-.11-.22-.18-.29-.23-.11-.09-.29-.21-.52-.37-.24-.16-.41-.29-.53-.38-1.15-.88-1.45-1.67-.92-2.36.21-.28.49-.44.84-.49.37-.05.71.04,1.03.28Z" style="fill:#fff;"/><path d="m383.55,62.81c.4.78.8,1.56,1.2,2.34,2.76,5.29,1.49,11.92-2.99,15.64-4.76,3.95-11.32,4.08-16.1.31-4.77-3.76-6.3-10.46-3.59-15.72,2.79-5.41,8.9-8.13,14.76-6.58.83.22,1.68.4,2.52.6,1.4,1.13,2.79,2.27,4.19,3.4Zm-6.54,11.32c1.59-1.82,1.35-4.93-.49-6.54-1.87-1.63-4.85-1.38-6.48.53-1.69,1.98-1.48,4.75.48,6.44,1.93,1.65,4.84,1.46,6.49-.43Z" style="fill:#fbd2d7;"/><path d="m348.68,147c-6.4-5.26-7.3-14.59-2.01-20.96,5.25-6.33,14.74-7.22,21-1.96,6.17,5.19,7.08,14.63,2.01,20.86-5.17,6.35-14.65,7.28-21,2.06Zm5.18-6.23c2.78,2.25,7.17,1.85,9.47-.85,2.32-2.74,1.87-7.41-.92-9.68-2.84-2.31-7.32-1.78-9.62,1.14-2.24,2.86-1.76,7.1,1.08,9.39Z" style="fill:#fbd2d7;"/><path d="m239.43,67.89c-1.47.24-3.18,1.05-4.39.58-1.22-.48-2.12-2.13-2.8-3.45-.35-.67.06-1.75.19-2.64,2.88-19,5.76-37.99,8.65-56.99.11-.71.19-1.43.38-2.12.62-2.3,2.46-3.63,4.57-3.19,2.22.47,3.37,1.94,3.33,4.24-.01.71-.13,1.43-.24,2.14-2.88,19-5.76,37.99-8.66,56.98-.2,1.31-.6,2.59-1.03,4.44Z" style="fill:#fff;"/><path d="m460.79,171.75c-1.43.77-2.32,1.38-3.3,1.75-18.58,6.96-37.17,13.89-55.75,20.85-2.15.81-4.35.88-5.45-1.21-.65-1.24-.47-3.32.12-4.68.43-.98,2.11-1.54,3.33-2,18.07-6.79,36.15-13.54,54.24-20.28.92-.34,2.01-.93,2.82-.7,1.36.38,3.01,1.04,3.68,2.12.66,1.06.25,2.78.31,4.15Z" style="fill:#fff;"/><path d="m285.66,111.14c-.2-.87-.96-2.31-.66-3.47.31-1.18,1.52-2.72,2.6-2.97,2.85-.67,5.86-1.04,8.77-.87,1.18.07,2.91,1.73,3.18,2.93.28,1.21-.7,3.77-1.56,3.98-3.41.84-7,1.01-10.52,1.36-.37.04-.78-.4-1.8-.96Z" style="fill:#fbd2d7;"/><path d="m325.7,77.76c.22.92,1.04,2.39.7,3.5-.38,1.24-1.64,2.79-2.81,3.1-2.66.69-5.48.84-8.25.93-2.04.06-3.66-1.26-3.57-3.25.06-1.44,1.06-3.79,2.08-4.07,3.15-.84,6.51-.9,9.8-1.18.46-.04.96.43,2.06.97Z" style="fill:#fff;"/><path d="m231.83,118.48c-1.26,1.65-3.91,2.05-5.53.84-1.84-1.38-2.24-3.93-.88-5.72,1.34-1.77,3.96-2.05,5.72-.62,1.7,1.38,2,3.78.69,5.5Z" style="fill:#fbd2d7;"/><path d="m236.06,90.55c-1.37,1.66-3.91,1.97-5.51.67-1.79-1.46-2.1-4.02-.68-5.73,1.4-1.69,4.11-1.91,5.78-.46,1.61,1.4,1.79,3.86.41,5.53Z" style="fill:#fbd2d7;"/><path d="m298.22,52.94c-.08-.02-.16-.03-.24-.05-.5-.07-.86-.32-1.04-.79-.19-.48-.08-.91.25-1.32.37-.47.7-.96,1.03-1.45.07-.11.1-.25.13-.33-.64.07-1.27.23-1.89.2-1.49-.08-2.57-.85-3.17-2.21-.76-1.72.37-3.71,2.3-4.16,1.37-.32,2.58,0,3.66.88.15.12.29.26.47.42.49-1.18.62-2.36.32-3.59-.05-.2-.13-.4-.18-.6-.19-.7.15-1.37.79-1.58.67-.22,1.34.12,1.59.83.78,2.22.62,4.39-.49,6.44-.41.77-.68,1.48-.68,2.38,0,1.74-.84,3.19-2.02,4.44-.07.08-.14.16-.21.25l-.63.23Zm-.08-6.77c-.39-.53-.84-.92-1.5-.95-.56-.03-1.05.28-1.07.65-.02.39.5.83,1.02.86.58.03,1.07-.2,1.54-.55Z" style="fill:#fbd2d7;"/><path d="m415.15,132.35c-.09-.07-.21-.19-.37-.36-.15-.17-.28-.29-.38-.37-.2-.16-.5-.4-.9-.71-.4-.31-.71-.54-.91-.71-.19.25-.46.58-.79.97-.42.5-.68.82-.79.95-.3.37-.69.57-1.15.59-.47.02-.9-.13-1.31-.45s-.64-.72-.71-1.19c-.07-.47.05-.89.36-1.27-.08.1.43-.55,1.53-1.93-.58-.42-1.07-.8-1.49-1.14-.53-.43-.91-.9-1.16-1.42-.31-.66-.29-1.21.08-1.66.47-.58,1.01-.76,1.63-.56.34.11.86.46,1.57,1.04.42.34.92.72,1.49,1.14.06-.07.18-.23.35-.45s.32-.41.43-.55c1.2-1.48,2.3-1.81,3.3-1,.39.32.63.71.73,1.19.09.47-.01.9-.31,1.27-.1.12-.26.29-.48.52-.23.23-.39.4-.49.53l-.62.79c.16.15.29.25.38.33.15.12.38.29.69.52.31.23.54.41.7.53,1.51,1.23,1.89,2.29,1.15,3.21-.29.36-.68.57-1.14.63-.5.06-.96-.08-1.37-.42Z" style="fill:#fff;"/><path d="m5.43,178.32c1.28-.19,2.12-.41,2.96-.42,15.96-.14,31.93-.24,47.9-.38,1.85-.02,3.56.55,3.9,2.48.2,1.14-.44,2.71-1.22,3.59-.57.63-1.99.6-3.05.61-15.53.15-31.06.26-46.6.36-.79,0-1.77.15-2.34-.26-.95-.68-2.06-1.66-2.32-2.68-.25-1.01.48-2.23.76-3.3Z" style="fill:#fff;"/><path d="m200.89,379.17c-1.55-2.09-1.45-4.98.01-7.13.27-.4.55-.77.84-1.11,17.9-20.55,5.5-5.84,23.4-26.39,2.07-2.38,4.66-3.9,7.28-2.07,1.55,1.09,2.64,3.74,2.76,5.78.09,1.47-1.56,3.25-2.74,4.61-17.4,20.01-4.5,4.76-21.95,24.71-.89,1.01-1.83,2.43-2.94,2.68-1.86.42-4.25.69-5.73-.19-.36-.22-.67-.53-.94-.89Z" style="fill:#fff;"/><path d="m261.09,378.84c-.07-.08-.13-.17-.21-.25-1.19-1.25-2.02-2.7-2.02-4.44,0-.9-.27-1.61-.68-2.38-1.11-2.06-1.27-4.23-.49-6.44.25-.71.92-1.05,1.59-.83.64.21.98.88.79,1.58-.05.2-.13.4-.18.6-.3,1.22-.17,2.41.32,3.59.18-.16.32-.29.47-.42,1.08-.87,2.29-1.2,3.66-.88,1.93.46,3.05,2.44,2.3,4.16-.6,1.36-1.68,2.13-3.17,2.21-.62.03-1.25-.13-1.89-.2.03.09.06.22.13.33.34.49.67.99,1.03,1.45.32.41.43.84.25,1.32-.18.47-.55.72-1.04.79-.08.01-.16.03-.24.05l-.63-.23Zm2.25-5.99c.52-.03,1.04-.48,1.02-.86-.02-.37-.5-.68-1.07-.65-.66.04-1.11.42-1.5.95.48.36.96.59,1.54.55Z" style="fill:#fbd2d7;"/><path d="m452.28,252.07c-.09-.07-.21-.19-.37-.36-.15-.17-.28-.29-.38-.37-.2-.16-.5-.4-.9-.71-.4-.31-.71-.54-.91-.71-.19.25-.46.58-.79.97-.42.5-.68.82-.79.95-.3.37-.69.57-1.15.59-.47.02-.9-.13-1.31-.45s-.64-.72-.71-1.19c-.07-.47.05-.89.36-1.27-.08.1.43-.55,1.53-1.93-.58-.42-1.07-.8-1.49-1.14-.53-.43-.91-.9-1.16-1.42-.31-.66-.29-1.21.08-1.66.47-.58,1.01-.76,1.63-.56.34.11.86.46,1.57,1.04.42.34.92.72,1.49,1.14.06-.07.18-.23.35-.45s.32-.41.43-.55c1.2-1.48,2.3-1.81,3.3-1,.39.32.63.71.73,1.19.09.47-.01.9-.31,1.27-.1.12-.26.29-.48.52-.23.23-.39.4-.49.53l-.62.79c.16.15.29.25.38.33.15.12.38.29.69.52.31.23.54.41.7.53,1.51,1.23,1.89,2.29,1.15,3.21-.29.36-.68.57-1.14.63-.5.06-.96-.08-1.37-.42Z" style="fill:#fbd2d7;"/><path d="m317.67,364.78c.37,4.14-2.73,7.93-6.87,8.4-4.21.48-8.14-2.67-8.58-6.87-.44-4.22,2.71-8.06,6.95-8.49,4.23-.43,8.11,2.76,8.49,6.96Zm-6.14.58c-.25-.65-1.24-1.02-1.91-1.51-.45.64-1.28,1.3-1.25,1.91.03.57.97,1.1,1.89,2.04.63-1.14,1.45-1.99,1.27-2.45Z" style="fill:#fff;"/><path d="m340.23,367.28c-.55-.91-.8-1.66-1.31-2.12-1.39-1.24-2.83-2.43-4.36-3.5-1.38-.97-2.8-.77-3.95.49-1.09,1.2-1.01,2.9.3,4.12,1.37,1.26,2.77,2.57,4.38,3.45.88.48,2.38.44,3.31.02.76-.34,1.1-1.61,1.62-2.46Z" style="fill:#fbd2d7;"/></svg>