<?xml version="1.0" encoding="UTF-8"?><svg id="Layer_1" xmlns="http://www.w3.org/2000/svg" viewBox="0 0 477.73 388.92"><g><g><g><g><path d="m166.65,201.44l-8.69-15.77c-.72-1.21-2.35-1.5-3.45-.61l-3.07,2.5c-1.1.89-1.15,2.54-.11,3.5,0,0,9.05,2.64,10.12,9.33l5.2,1.06Z" style="fill:none; stroke:#fff; stroke-miterlimit:10; stroke-width:6px;"/><path d="m207.02,295.16c-.47,1.4-2.84.46-5.82-.53s-5.44-1.67-4.97-3.07,3.69-3,6.66-2,4.59,4.21,4.12,5.61Z" style="fill:#fff;"/><path d="m167.23,292.56c.63,1.34-1.73,2.3-4.57,3.64s-5.08,2.56-5.71,1.22.59-4.72,3.42-6.06,6.22-.14,6.86,1.2Z" style="fill:#fff;"/><path d="m162.58,202.39c-11.39,7.92-14.88,24.44,1.31,40.26s28.93,11.31,32.77,5.88,26.11-.75,22.94-28.51c-29.1,14.49-45.63-25.56-57.02-17.63Z" style="fill:none; stroke:#fff; stroke-miterlimit:10; stroke-width:5px;"/><path d="m163.89,242.65c-16.19-15.82-12.7-32.34-1.31-40.26.46-.32.93-.56,1.41-.73-29.48-2.75-24.23,27.63-49.73,26.64,0,0-3.3,20.9,19.37,18.3,1.96,18.15,23.87,11.54,34.74,3.98.83-.58,1.64-1.33,2.42-2.22-2.21-1.51-4.51-3.38-6.89-5.7Z" style="fill:none; stroke:#fff; stroke-miterlimit:10; stroke-width:3px;"/><path d="m114.81,247.75c3.03,2.71,7.5,4.87,14.12,5.06,2.68,7.26,8.98,11.45,17.67,11.45,9.12,0,18.97-4.52,24.82-8.5,4.73,2.53,9.44,3.8,14.05,3.8,6.54,0,12.4-2.67,15.81-7.17.7-.35,2.38-.84,3.64-1.2,2.09-.6,4.47-1.29,6.89-2.37,10.38,14.47,16.69,31.74,16.69,46.12,0,25.1-19.61,35.81-65.58,35.81s-65.58-10.71-65.58-35.81c0-14.75,6.71-32.59,17.47-47.19m.37-10.02c-14.63,16.68-23.83,38.89-23.83,57.21,0,34.17,32.05,41.81,71.58,41.81s71.58-7.63,71.58-41.81c0-17.15-8.07-37.71-21.1-53.95-6.07,4.65-14.5,4.4-16.73,7.55-1.86,2.62-5.8,5.03-11.19,5.03-4.13,0-9.12-1.41-14.69-5.2-.78.9-1.59,1.65-2.42,2.22-5.71,3.97-14.46,7.68-21.76,7.68-6.61,0-12.05-3.03-12.98-11.66-1.33.15-2.57.22-3.73.22-9.18,0-13.1-4.52-14.73-9.1h0Z" style="fill:#fff;"/></g><path d="m193.71,307.56c.18,1.8-4.15,6.38-9.67,6.93-5.52.55-10.14-3.13-10.32-4.92s4.15-1.02,9.67-1.58,10.14-2.22,10.32-.43Z" style="fill:#fff;"/></g><path d="m232.53,112.88c15.52,0,31.51,8.48,45.01,23.87,12.31,14.03,20.54,32.03,21.48,46.98.82,13.14-4.02,22.17-15.23,28.41-10.11,5.63-25.5,9.02-47.04,10.37-3.44.22-6.75.36-9.89.44-.06-1.2-.16-2.44-.3-3.7l-1.14-9.92-8.94,4.45c-3.32,1.65-6.45,2.45-9.58,2.45-8.69,0-16.37-6.46-23.14-12.16-4.64-3.91-8.81-7.41-13.3-8.92-.15-1.08-.27-2.2-.34-3.34-.97-15.45,5.28-34.81,16.31-50.54,7.01-9.99,21.97-26.95,43.46-28.3.89-.06,1.75-.08,2.64-.08m0-7c-1.02,0-2.04.03-3.08.1-39.45,2.47-68.45,52.15-66.32,86.25.21,3.35.72,6.43,1.49,9.25.4-.09.8-.13,1.21-.13,9.33,0,21.96,21.87,41.06,21.87,3.95,0,8.17-.93,12.7-3.19.45,3.92.39,7.2-.06,9.95.85.01,1.7.02,2.55.02,4.87,0,9.92-.18,15.08-.51,39.45-2.47,70.96-12.09,68.82-46.2-2.08-33.22-35.3-77.41-73.48-77.41h0Z" style="fill:#fff;"/><g><path d="m310.75,217.23c15.52,0,31.51,8.48,45.01,23.87,12.31,14.03,20.54,32.03,21.48,46.98.82,13.14-4.02,22.17-15.23,28.41-10.11,5.63-25.5,9.02-47.04,10.37-5.24.33-10.17.49-14.66.49-16.79,0-29.07-2.26-37.55-6.91-9.11-5-13.7-12.72-14.42-24.3-.97-15.45,5.28-34.81,16.31-50.54,7.01-9.99,21.97-26.95,43.46-28.3.87-.05,1.76-.08,2.64-.08h0m0-7c-1.02,0-2.05.03-3.08.1-39.45,2.47-68.45,52.15-66.32,86.25,1.85,29.64,26.61,37.76,58.95,37.76,4.88,0,9.93-.18,15.09-.51,39.45-2.47,70.96-12.09,68.82-46.2-2.08-33.22-35.3-77.41-73.48-77.41h0Z" style="fill:#fff;"/><g><path d="m265.67,284.71c-3.19-.02-5.92,2.51-6.15,5.69-.09,1.32.65,2.36,1.81,2.54,1.22.18,2.21-.52,2.43-1.87.18-1.12.61-1.99,1.84-2,1.22-.01,1.71.8,1.89,1.95.21,1.37,1.16,2.08,2.39,1.93,1.22-.15,1.99-1.23,1.87-2.63-.27-3.13-2.95-5.59-6.08-5.61Z" style="fill:#fff;"/><path d="m300.87,284.72c-3.12.14-5.64,2.54-5.9,5.64-.11,1.35.59,2.38,1.75,2.58,1.26.22,2.23-.5,2.5-1.95.2-1.12.68-1.95,1.92-1.91,1.14.04,1.61.81,1.78,1.9.23,1.44,1.22,2.18,2.49,1.97,1.16-.19,1.87-1.23,1.78-2.56-.23-3.21-3.12-5.8-6.32-5.65Z" style="fill:#fff;"/></g></g><g><path d="m231.79,161.87c-.59.47-1.07.88-1.58,1.24-.9.62-.27,1.18.1,1.65.69.87,1.93.92,2.68.12.3-.32.71-.98.59-1.14-.49-.68-1.16-1.23-1.8-1.87Z" style="fill:#fbd2d7;"/><path d="m285.11,178.99c-1.52-24.24-26.36-56.69-54.4-54.94s-48.64,37.06-47.13,61.29,24.58,28.23,52.62,26.47c28.04-1.75,50.42-8.59,48.91-32.83Zm-65.32-22.99c-1.93,0-3.5-1.57-3.5-3.5s1.57-3.5,3.5-3.5,3.5,1.57,3.5,3.5-1.57,3.5-3.5,3.5Zm16.77,7.86c-.19.31-.43.6-.56.93-.72,1.94-2.38,3.2-4.27,3.21-1.85,0-3.51-1.23-4.27-3.07-.19-.46-.65-.81-.92-1.25-.22-.37-.55-.84-.47-1.18.09-.39.56-.71.9-1.02.11-.1.34-.07.51-.1,1.81-.3,2.69-1.2,2.93-3.05.11-.83.48-1.32,1.33-1.31.8.01,1.15.49,1.26,1.27.27,1.93,1.11,2.79,3.01,3.09.68.11,1.36.33,1.33,1.07-.02.48-.51.94-.79,1.41Zm8.23-7.86c-1.93,0-3.5-1.57-3.5-3.5s1.57-3.5,3.5-3.5,3.5,1.57,3.5,3.5-1.57,3.5-3.5,3.5Z" style="fill:#fbd2d7;"/></g></g><g><path d="m136.62,388.92h-27.94c-5.22,0-9.44-4.23-9.44-9.44v-15.97h46.83v15.97c0,5.22-4.23,9.44-9.44,9.44Z" style="fill:#fbd2d7;"/><path d="m357.37,388.92h-27.94c-5.22,0-9.44-4.23-9.44-9.44v-15.97h46.83v15.97c0,5.22-4.23,9.44-9.44,9.44Z" style="fill:#fbd2d7;"/><rect x="64.79" y="337.08" width="344.5" height="26.09" rx="13.04" ry="13.04" style="fill:none; stroke:#fff; stroke-miterlimit:10; stroke-width:7px;"/></g></g><path d="m247.1,0c.77.34,1.54.68,2.31,1.01,5.24,2.27,8.3,7.95,7.21,13.41-1.15,5.8-5.95,9.86-11.77,9.94-5.81.09-10.99-3.97-12.14-9.51-1.19-5.7,1.71-11.4,7-13.79.75-.34,1.49-.71,2.23-1.07,1.72,0,3.44,0,5.16,0Zm1.97,12.35c.08-2.31-1.97-4.48-4.3-4.56-2.37-.08-4.43,1.9-4.49,4.31-.06,2.49,1.77,4.42,4.24,4.49,2.43.06,4.47-1.84,4.56-4.23Z" style="fill:#fbd2d7;"/><path d="m440.19,142.91c-.92,1.48-1.4,2.7-2.26,3.56-13.45,13.51-26.93,26.99-40.44,40.45-2.07,2.06-4.24,2.19-5.92.57-1.68-1.61-1.53-4.04.55-6.12,13.46-13.5,26.95-26.97,40.45-40.44,1.35-1.35,2.99-2.37,4.81-1.21,1.1.7,1.81,2.01,2.81,3.19Z" style="fill:#fbd2d7;"/><path d="m271.98,83.56c-7.92-.05-14.22-6.44-14.14-14.35.08-7.87,6.59-14.25,14.42-14.12,7.71.13,14.08,6.59,14.07,14.28,0,7.84-6.49,14.24-14.36,14.2Zm.09-7.75c3.42,0,6.45-2.95,6.52-6.34.07-3.43-3.08-6.63-6.52-6.64-3.51,0-6.51,3.09-6.46,6.65.06,3.48,2.98,6.33,6.46,6.33Z" style="fill:#fbd2d7;"/><path d="m142.06,87.86c-.95,1.07-1.73,2.7-2.91,3.08-1.19.38-2.86-.31-4.16-.88-.66-.29-1.01-1.33-1.45-2.07-9.32-15.84-18.63-31.69-27.94-47.54-.35-.59-.72-1.18-.99-1.8-.92-2.08-.37-4.18,1.47-5.12,1.93-.99,3.67-.6,5.03,1.14.42.54.77,1.14,1.11,1.73,9.32,15.84,18.64,31.69,27.93,47.55.64,1.09,1.12,2.28,1.91,3.92Z" style="fill:#fbd2d7;"/><path d="m370.16,34.34c-.6,1.43-.89,2.42-1.4,3.29-9.6,16.37-19.23,32.73-28.84,49.1-1.11,1.9-2.7,3.28-4.78,2.39-1.23-.53-2.36-2.18-2.73-3.55-.27-.98.63-2.41,1.27-3.5,9.32-15.94,18.69-31.86,28.06-47.77.48-.81.93-1.9,1.67-2.22,1.24-.53,2.87-1.04,4.01-.65,1.13.39,1.87,1.92,2.73,2.9Z" style="fill:#fbd2d7;"/><path d="m88.91,183.82c0,3.84-3.11,5.65-5.69,4.15-.8-.46-1.48-1.17-2.14-1.83-13-12.99-26-25.98-38.99-38.99-.66-.66-1.68-1.37-1.76-2.14-.17-1.48-.23-3.28.49-4.46.97-1.59,2.88-1.77,4.58-.73.79.48,1.48,1.16,2.15,1.82,13.01,12.99,26.01,25.97,38.98,39,1.09,1.1,1.89,2.5,2.39,3.18Z" style="fill:#fbd2d7;"/><path d="m342.66,158.6c6.67,0,12.18,5.46,12.22,12.1.04,6.7-5.62,12.3-12.37,12.24-6.69-.07-12.06-5.55-12.02-12.26.05-6.74,5.43-12.08,12.17-12.08Zm4.45,12.19c.03-2.35-2.03-4.4-4.41-4.42-2.47-.02-4.38,1.86-4.4,4.34-.02,2.44,1.91,4.43,4.33,4.46,2.34.02,4.47-2.05,4.49-4.38Z" style="fill:#fbd2d7;"/><path d="m347.03,151.47c-5.49.03-10.05-4.46-10.06-9.92-.01-5.43,4.59-10,10.04-9.96,5.36.03,9.85,4.46,9.94,9.81.09,5.43-4.45,10.04-9.92,10.07Zm.02-12.93c-1.05,1.33-2.18,2.14-2.14,2.87.05.79,1.2,1.52,1.87,2.28.79-.72,2-1.32,2.24-2.19.16-.61-1-1.58-1.96-2.96Z" style="fill:#fff;"/><path d="m65.03,213.96c-5.52.03-10.05-4.42-10.06-9.89-.01-5.47,4.51-9.94,10.04-9.92,5.41.02,9.83,4.37,9.93,9.76.09,5.45-4.4,10.01-9.9,10.05Zm3.01-9.9c-1.4-.99-2.24-2.05-3-1.99-.79.06-1.51,1.19-2.26,1.86.75.75,1.41,1.94,2.27,2.12.66.14,1.59-1,2.99-1.98Z" style="fill:#fbd2d7;"/><path d="m71.83,139.59c-.68-.54-2.12-1.15-2.59-2.2-.48-1.06-.52-2.94.13-3.78,1.72-2.21,3.73-4.3,6-5.92.92-.65,3.2-.46,4.13.27.94.74,1.77,3.23,1.26,3.9-2.04,2.68-4.6,4.97-7.02,7.35-.25.25-.82.18-1.9.38Z" style="fill:#fbd2d7;"/><path d="m203.54,94.93c-.67-.53-2.11-1.13-2.58-2.18-.48-1.06-.51-2.94.13-3.77,1.71-2.21,3.73-4.31,5.99-5.93.92-.66,3.2-.47,4.13.26.93.73,1.75,3.22,1.24,3.9-2.03,2.68-4.59,4.97-7,7.35-.25.25-.82.17-1.92.37Z" style="fill:#fbd2d7;"/><path d="m213.16,45.99c.72.56,2.21,1.15,2.63,2.18.47,1.15.47,3.06-.22,3.99-1.56,2.11-3.57,3.93-5.57,5.66-1.48,1.28-3.48,1.27-4.61-.25-.82-1.11-1.5-3.45-.91-4.27,1.84-2.52,4.29-4.6,6.57-6.78.32-.3.97-.26,2.11-.52Z" style="fill:#fff;"/><path d="m385.48,135.12c-.58,1.24-.8,2.23-1.39,2.89-1.61,1.78-3.3,3.5-5.1,5.08-1.64,1.44-3.48,1.37-5.12-.09-1.56-1.38-1.69-3.58-.18-5.31,1.58-1.8,3.19-3.67,5.13-5.02,1.06-.73,2.98-.89,4.24-.47,1.02.34,1.63,1.91,2.41,2.92Z" style="fill:#fbd2d7;"/><path d="m325.83,106.51c-1.98-.07-3.6-1.86-3.56-3.94.04-2.08,1.72-3.75,3.76-3.74,2.11,0,3.95,1.87,3.89,3.95-.06,2.14-1.89,3.81-4.09,3.73Z" style="fill:#fbd2d7;"/><path d="m167.26,113.73c.06,1.98-1.67,3.88-3.6,3.96-2.2.09-4.03-1.57-4.1-3.72-.07-2.12,1.7-3.91,3.87-3.91,2.09,0,3.77,1.6,3.83,3.67Z" style="fill:#fbd2d7;"/><path d="m323.34,113.86c-.01,2.16-1.77,3.86-3.98,3.84-1.91-.01-3.71-1.88-3.71-3.86,0-2.07,1.63-3.73,3.72-3.77,2.2-.05,3.98,1.66,3.97,3.79Z" style="fill:#fbd2d7;"/><path d="m153.64,102.69c-.02,2.06-1.72,3.82-3.69,3.82-2.21,0-3.98-1.72-3.96-3.85.02-2.1,1.9-3.9,4.01-3.83,2.04.07,3.66,1.78,3.64,3.86Z" style="fill:#fbd2d7;"/><path d="m374.88,208.01c-.03,1.95-1.85,3.77-3.8,3.8-2.12.03-3.89-1.77-3.87-3.93.02-2.09,1.64-3.7,3.73-3.73,2.15-.02,3.97,1.76,3.94,3.86Z" style="fill:#fff;"/><path d="m380.25,194.96c2.13.06,3.8,1.89,3.69,4.06-.1,2.03-1.87,3.69-3.87,3.63-2.08-.06-3.83-1.99-3.71-4.08.11-2.06,1.83-3.66,3.89-3.6Z" style="fill:#fff;"/><path d="m103.23,148.94c-.01,2.16-1.77,3.86-3.98,3.84-1.91-.01-3.71-1.88-3.71-3.86,0-2.07,1.63-3.73,3.72-3.77,2.2-.05,3.98,1.66,3.97,3.79Z" style="fill:#fbd2d7;"/><path d="m477.37,270.92c-1.91.42-3.27.99-4.65.97-21.61-.26-43.21-.58-64.82-.94-3.31-.05-5.17-1.71-5.26-4.37-.09-2.64,1.94-4.43,5.28-4.39,21.61.29,43.21.62,64.82.95,2.16.03,4.3.56,4.87,2.96.34,1.44-.12,3.06-.23,4.81Z" style="fill:#fbd2d7;"/><path d="m74.74,270.49c-1.91.42-3.27.99-4.65.97-21.61-.26-43.21-.58-64.82-.94-3.31-.05-5.17-1.71-5.26-4.37-.09-2.64,1.94-4.43,5.28-4.39,21.61.29,43.21.62,64.82.95,2.16.03,4.3.56,4.87,2.96.34,1.44-.12,3.06-.23,4.81Z" style="fill:#fbd2d7;"/><path d="m418.69,231.37c-.3-.8-1.21-2.07-1.07-3.2.14-1.15,1.09-2.77,2.08-3.15,2.62-1,5.43-1.73,8.21-1.94,1.12-.08,2.98,1.27,3.39,2.38.41,1.11-.19,3.66-.98,3.97-3.13,1.23-6.51,1.85-9.81,2.62-.34.08-.79-.28-1.83-.68Z" style="fill:#fbd2d7;"/><path d="m39.29,237.73c-.08.13-.16.25-.23.38-.43.82-1.1,1.3-2.04,1.31-.96.02-1.64-.45-2.14-1.27-.58-.94-1.23-1.83-1.87-2.73-.14-.2-.36-.33-.49-.45-.28,1.16-.41,2.36-.86,3.42-1.09,2.54-3.13,3.94-5.88,4.11-3.49.21-6.22-3.02-5.78-6.67.32-2.6,1.66-4.5,3.88-5.82.31-.18.63-.34,1.03-.55-1.74-1.62-3.72-2.6-6.04-2.87-.38-.04-.77-.03-1.16-.07-1.34-.13-2.29-1.14-2.25-2.39.04-1.3,1.07-2.25,2.47-2.23,4.36.07,8.05,1.74,10.92,4.99,1.07,1.21,2.14,2.13,3.71,2.72,3.03,1.13,5.03,3.51,6.44,6.38.09.18.2.35.3.52v1.24Zm-11.86-4.21c-1.18.33-2.13.87-2.62,1.99-.42.96-.19,2,.44,2.27.66.28,1.77-.34,2.15-1.22.43-.99.34-1.99.03-3.05Z" style="fill:#fff;"/><path d="m399.53,74.9c1.68.66,3.28,1.13,4.73,1.88,4.7,2.4,7.59,7.8,6.94,12.73-.94,7.1-7.58,11.09-14.75,8.81-4.98-1.58-7.95-5.1-9.49-9.97-.14-.45-.27-.9-.45-1.49-4.18,3.04-6.9,6.89-8.03,11.81-.36,1.58-1.13,2.8-2.64,3.46-1.57.68-3.09.49-4.42-.56-1.37-1.08-2.01-2.54-1.63-4.28,2.09-9.48,7.63-16.17,16.37-20.31.75-.36,1.51-1.05,1.9-1.78,3.54-6.7,9.28-10.4,16.43-12.14,2.27-.55,4.49.97,5.07,3.18.61,2.3-.61,4.57-2.98,5.3-2.49.76-4.9,1.62-7.05,3.37Zm-4.44,8.76c.15,2.55.86,4.6,3.01,5.85,1.58.93,3.39.82,4.04-.12.7-1.03.21-3.14-1.09-4.22-1.67-1.39-3.67-1.63-5.96-1.51Z" style="fill:#fff;"/><path d="m177.78,44.13c-.07.04-.14.07-.2.11-.41.25-.83.28-1.25.05-.43-.25-.61-.63-.61-1.13,0-.57-.06-1.14-.11-1.7-.01-.12-.07-.24-.1-.33-.43.44-.8.94-1.28,1.29-1.15.84-2.42.92-3.69.27-1.6-.82-1.96-2.98-.8-4.48.82-1.07,1.92-1.56,3.25-1.56.19,0,.37.02.6.03-.34-1.18-.97-2.13-1.92-2.86-.16-.12-.33-.22-.5-.34-.56-.41-.71-1.11-.37-1.65.36-.56,1.07-.71,1.68-.34,1.92,1.18,3.11,2.89,3.52,5.08.16.82.39,1.51.93,2.18,1.05,1.3,1.3,2.88,1.17,4.52,0,.1,0,.21,0,.31l-.33.55Zm-4.15-4.98c-.61-.16-1.17-.18-1.69.19-.44.32-.61.84-.4,1.12.22.3.88.32,1.28.03.45-.33.67-.79.81-1.34Z" style="fill:#fbd2d7;"/><path d="m312.5,32.6c-.11,0-.27-.02-.49-.05-.22-.03-.38-.05-.5-.05-.25,0-.61,0-1.1.02-.48.01-.85.02-1.11.02,0,.3,0,.7,0,1.2,0,.63-.01,1.02-.01,1.18,0,.46-.17.84-.5,1.14-.33.3-.75.45-1.24.45s-.91-.15-1.24-.46c-.33-.31-.5-.69-.5-1.16,0,.12,0-.67-.03-2.35-.68.04-1.28.05-1.79.05-.65,0-1.22-.12-1.72-.36-.63-.3-.94-.73-.94-1.29,0-.71.29-1.18.88-1.39.32-.12.92-.18,1.79-.18.52,0,1.12-.02,1.79-.05,0-.09,0-.27-.01-.55s-.01-.5-.01-.67c0-1.82.62-2.73,1.85-2.73.48,0,.9.15,1.26.44.36.3.53.67.53,1.13,0,.15-.02.37-.05.68-.03.31-.05.54-.05.69v.96c.22,0,.38.01.49.01.18,0,.46,0,.83-.03.37-.02.65-.03.84-.03,1.86,0,2.79.56,2.79,1.69,0,.45-.16.83-.47,1.16-.34.34-.76.52-1.27.52Z" style="fill:#fff;"/><path d="m112.8,110.11c-.18.05-.46.1-.82.14-.37.05-.65.1-.85.15-.41.11-1,.29-1.79.53-.78.24-1.39.42-1.81.54.15.5.33,1.15.54,1.96.27,1.03.44,1.68.52,1.94.21.75.11,1.45-.3,2.09-.41.64-1.02,1.08-1.83,1.3s-1.56.16-2.25-.19c-.69-.35-1.13-.9-1.34-1.67.05.19-.32-1.09-1.11-3.84-1.1.37-2.07.67-2.91.9-1.06.29-2.06.36-2.98.2-1.17-.21-1.88-.77-2.13-1.68-.32-1.16-.06-2.06.8-2.68.47-.34,1.42-.71,2.85-1.11.85-.24,1.82-.54,2.91-.9-.04-.15-.13-.45-.27-.89s-.25-.81-.33-1.09c-.83-2.99-.24-4.76,1.78-5.32.79-.22,1.55-.17,2.26.16.72.32,1.18.86,1.39,1.61.07.24.14.62.23,1.13.09.52.17.9.24,1.15l.46,1.56c.35-.08.61-.15.79-.2.3-.08.75-.22,1.34-.42.6-.2,1.05-.34,1.37-.43,3.05-.85,4.83-.35,5.34,1.5.2.73.12,1.44-.24,2.11-.4.72-1.02,1.19-1.84,1.42Z" style="fill:#fff;"/><path d="m445.5,193.27c-.11,0-.27-.02-.49-.05-.22-.03-.38-.05-.5-.05-.25,0-.61,0-1.1.02-.48.01-.85.02-1.11.02,0,.3,0,.7,0,1.2,0,.63-.01,1.02-.01,1.18,0,.46-.17.84-.5,1.14-.33.3-.75.45-1.24.45s-.91-.15-1.24-.46c-.33-.31-.5-.69-.5-1.16,0,.12,0-.67-.03-2.35-.68.04-1.28.05-1.79.05-.65,0-1.22-.12-1.72-.36-.63-.3-.94-.73-.94-1.29,0-.71.29-1.18.88-1.39.32-.12.92-.18,1.79-.18.52,0,1.12-.02,1.79-.05,0-.09,0-.27-.01-.55s-.01-.5-.01-.67c0-1.82.62-2.73,1.85-2.73.48,0,.9.15,1.26.44.36.3.53.67.53,1.13,0,.15-.02.37-.05.68-.03.31-.05.54-.05.69v.96c.22,0,.38.01.49.01.18,0,.46,0,.83-.03.37-.02.65-.03.84-.03,1.86,0,2.79.56,2.79,1.69,0,.45-.16.83-.47,1.16-.34.34-.76.52-1.27.52Z" style="fill:#fff;"/></svg>