<?xml version="1.0" encoding="UTF-8"?>
<svg id="Layer_1" data-name="Layer 1" xmlns="http://www.w3.org/2000/svg" viewBox="0 0 477 373.44">
  <g>
    <g>
      <g>
        <path d="m321.62,181.49c-.27-.56-.57-1.11-.89-1.65.32.53.62,1.08.89,1.65Z" style="fill: #fbd2d7;"/>
        <path d="m322.78,173.59c15.97,3.9,15.21,23.57,34.46,22.82,0,0,.67,4.27-.87,8.43.02-.06.05-.12.07-.18,5.67,6.46,10.41,13.88,13.93,21.53l27.08,27.08c4.67-20.05,9.51-45.87,11.22-72l-46.79-46.79-39.11,39.11Z" style="fill: #fbd2d7;"/>
      </g>
      <path d="m409.6,160.24l-47.37-47.37-48.05,48.05c-.03,5.23,1.64,8.13,1.91,13.41l45.89-45.05.2.2.2-.2,46.87,46.87c.26-5.32.38-10.64.34-15.91Z" style="fill: #fbd2d7;"/>
      <path d="m361.73,107.66l.2.2.2-.2,47.06,47.06c-.12-3.82-.33-7.6-.65-11.33-3.78-44.11-33.27-80.94-46.95-80.94s-43.17,36.83-46.95,80.95c-.34,3.95-.56,7.97-.67,12.02l47.75-47.75Z" style="fill: #fbd2d7;"/>
      <path d="m373.9,235.12c2.22,6.74,3.42,13.45,3.42,19.65,0,23.52-26.33,32.69-50.56,35.53.21.65-8.68,2.79-8.68,2.79l69.05,11.69s4.41-26.86,9.29-47.13l-22.53-22.53Z" style="fill: #fbd2d7;"/>
    </g>
    <g>
      <path d="m325.41,161.45c.96.78,1.01,2.23.1,3.07,0,0-7.93,2.31-8.87,8.17l-4.55.93,7.61-13.81" style="fill: none; stroke: #fff; stroke-miterlimit: 10; stroke-width: 6px;"/>
      <path d="m315.65,174.44c9.98,6.94,13.03,21.41-1.15,35.26-14.18,13.85-25.34,9.9-28.7,5.15-3.37-4.75-22.87-.66-20.09-24.97,25.49,12.69,39.97-22.39,49.94-15.45Z" style="fill: none; stroke: #fff; stroke-miterlimit: 10; stroke-width: 5px;"/>
      <path d="m314.5,209.7c14.18-13.85,11.13-28.32,1.15-35.26-.4-.28-.82-.49-1.24-.64,25.82-2.41,21.22,24.2,43.56,23.33,0,0,2.89,18.3-16.96,16.02-1.71,15.89-20.91,10.11-30.43,3.49-.73-.5-1.43-1.16-2.12-1.95,1.94-1.32,3.95-2.96,6.03-5Z" style="fill: none; stroke: #fff; stroke-miterlimit: 10; stroke-width: 3px;"/>
      <path d="m357.37,215.26c9.06,12.53,14.68,27.68,14.68,40.23,0,11.59-4.75,19.25-14.95,24.12-9.17,4.37-22.82,6.5-41.74,6.5s-32.58-2.13-41.74-6.5c-10.2-4.87-14.95-12.53-14.95-24.12,0-12.29,5.34-27.03,14.13-39.48,2.01.84,3.95,1.4,5.57,1.87.99.29,2.29.66,2.92.94,3.14,4.04,8.44,6.43,14.32,6.43,4.03,0,8.13-1.08,12.26-3.21,5.26,3.48,13.83,7.32,21.79,7.32s13.46-3.66,16-10.04c5.31-.25,9.07-1.92,11.72-4.06m-.2-9.87c-1.42,4.01-4.86,7.97-12.9,7.97-1.01,0-2.1-.06-3.26-.2-.81,7.55-5.57,10.21-11.37,10.21-6.4,0-14.06-3.25-19.06-6.72-.73-.5-1.43-1.16-2.12-1.95-4.88,3.33-9.25,4.56-12.87,4.56-4.73,0-8.18-2.11-9.8-4.4-1.95-2.76-9.34-2.54-14.65-6.61-11.41,14.22-18.48,32.24-18.48,47.26,0,29.93,28.07,36.62,62.69,36.62s62.69-6.69,62.69-36.62c0-16.04-8.06-35.5-20.87-50.11h0Z" style="fill: #fff;"/>
      <g>
        <path d="m318.37,237.56c-.27-.69-1.05-1.03-1.73-.76l-6.85,2.68c-.69.27-1.03,1.05-.76,1.73.27.69,1.05,1.03,1.73.76l6.85-2.68c.69-.27,1.03-1.05.76-1.73Z" style="fill: none;"/>
        <path d="m274.14,242.53c-.27-.69-1.05-1.03-1.73-.76l-6.85,2.68c-.69.27-1.03,1.05-.76,1.73.27.69,1.05,1.03,1.73.76l6.85-2.68c.69-.27,1.03-1.05.76-1.73h0Z" style="fill: none;"/>
        <path d="m268.37,238.08h0c-.27-.69-1.05-1.03-1.73-.76l-6.85,2.68c-.69.27-1.03,1.05-.76,1.73h0c.27.69,1.05,1.03,1.73.76l6.85-2.68c.69-.27,1.03-1.05.76-1.73Z" style="fill: none;"/>
        <path d="m322.41,241.25l-6.85,2.68c-.69.27-1.03,1.05-.76,1.73.27.69,1.05,1.03,1.73.76l6.85-2.68c.69-.27,1.03-1.05.76-1.73-.27-.69-1.05-1.03-1.73-.76Z" style="fill: none;"/>
        <g>
          <path d="m263.54,251.79c-5.31,0-9.67-4.32-9.71-9.63,0-.1,0-.19-.02-.29l-.83-7.4c-.18-1.6.33-3.2,1.4-4.4,1.07-1.2,2.6-1.88,4.21-1.88h32.35c.47,0,.86.39.86.86v2.26c-3.44.92-6.57,2.72-9.1,5.25l-.71.71,4.84,4.84.71-.71c1.22-1.22,2.67-2.2,4.26-2.87v1.67c0,6.38-5.19,11.57-11.57,11.57h-16.69Zm9.36-11.11c-.29,0-.58.05-.85.16l-6.85,2.68c-1.2.47-1.8,1.83-1.33,3.03.35.9,1.21,1.49,2.18,1.49.29,0,.58-.05.85-.16l6.85-2.68c.58-.23,1.04-.67,1.29-1.24.25-.57.26-1.21.04-1.79-.35-.9-1.21-1.49-2.18-1.49Zm-5.77-4.45c-.29,0-.58.05-.85.16l-6.86,2.68c-1.2.47-1.79,1.83-1.33,3.03.35.9,1.21,1.49,2.18,1.49.29,0,.58-.05.85-.16l6.85-2.68c1.2-.47,1.8-1.83,1.33-3.03-.35-.9-1.21-1.49-2.18-1.49Z" style="fill: #fbd2d7;"/>
          <path d="m290.8,229.2v1.36c-3.32,1.02-6.34,2.83-8.81,5.3l-1.41,1.41,1.41,1.41,3.43,3.43,1.41,1.41,1.41-1.41c.77-.77,1.63-1.43,2.55-1.97v.06c0,5.83-4.74,10.57-10.57,10.57h-16.69c-4.76,0-8.67-3.87-8.71-8.64,0-.13,0-.26-.02-.38l-.83-7.4c-.15-1.33.26-2.62,1.15-3.62.89-1,2.12-1.55,3.46-1.55h32.21m-30.53,15.39c.42,0,.83-.08,1.21-.23l1.97-.77c-.73.9-.97,2.17-.52,3.32.5,1.29,1.72,2.12,3.11,2.12.42,0,.83-.08,1.22-.23l6.85-2.68c.83-.32,1.48-.95,1.84-1.77.36-.82.38-1.72.05-2.55-.5-1.29-1.72-2.12-3.11-2.12-.42,0-.83.08-1.21.23l-1.97.77c.73-.9.97-2.17.52-3.32-.5-1.29-1.72-2.12-3.11-2.12-.42,0-.83.08-1.22.23l-6.85,2.68c-.83.32-1.48.95-1.84,1.77-.36.82-.38,1.72-.05,2.55.5,1.29,1.72,2.12,3.11,2.12m30.67-17.39h-32.35c-3.97,0-7.05,3.45-6.61,7.39l.83,7.4c0,.06,0,.12.01.18.05,5.87,4.82,10.62,10.71,10.62h16.69c6.94,0,12.57-5.63,12.57-12.57v-3.1c-2.18.67-4.24,1.86-5.96,3.59l-3.43-3.43c2.68-2.68,5.95-4.4,9.39-5.17v-3.04c0-1.03-.83-1.86-1.86-1.86h0Zm-30.67,15.39c-.53,0-1.04-.32-1.25-.85-.27-.69.07-1.46.76-1.73l6.85-2.68c.16-.06.32-.09.49-.09.53,0,1.04.32,1.25.85h0c.27.69-.07,1.46-.76,1.73l-6.85,2.68c-.16.06-.32.09-.49.09h0Zm5.77,4.45c-.53,0-1.04-.32-1.25-.85-.27-.69.07-1.46.76-1.73l6.85-2.68c.16-.06.32-.09.49-.09.53,0,1.04.32,1.25.85.27.69-.07,1.46-.76,1.73l-6.85,2.68c-.16.06-.32.09-.49.09h0Z" style="fill: #fbd2d7;"/>
        </g>
        <g>
          <path d="m315.4,251.79c-6.38,0-11.57-5.19-11.57-11.57v-.92c1,.58,1.93,1.29,2.75,2.12l.71.71.73-.73c.02.06.04.13.06.19.35.9,1.21,1.49,2.18,1.49.29,0,.58-.05.85-.16l6.85-2.68c1.2-.47,1.79-1.83,1.33-3.03-.35-.9-1.21-1.49-2.18-1.49-.29,0-.58.05-.85.16l-4.48,1.75.34-.34-.71-.71c-2.14-2.14-4.75-3.78-7.6-4.79v-2.72c0-.47.39-.86.86-.86h32.35c1.61,0,3.14.69,4.21,1.88,1.07,1.2,1.58,2.8,1.4,4.39l-.83,7.4c0,.1-.02.2-.02.29-.04,5.3-4.4,9.62-9.71,9.62h-16.69Zm7.49-11.63c-.29,0-.58.05-.85.16l-6.85,2.68c-.58.23-1.04.67-1.29,1.24-.25.57-.26,1.21-.04,1.79.35.9,1.21,1.49,2.18,1.49.29,0,.58-.05.85-.16l6.85-2.68c.58-.23,1.04-.67,1.29-1.24.25-.57.26-1.21.04-1.79-.35-.9-1.21-1.49-2.18-1.49Z" style="fill: #fbd2d7;"/>
          <path d="m337.04,229.2c1.34,0,2.57.55,3.46,1.55.89,1,1.3,2.28,1.15,3.62l-.83,7.4c-.01.13-.02.26-.02.38-.04,4.76-3.95,8.64-8.71,8.64h-16.69c-5.49,0-10.02-4.21-10.52-9.57.35.28.68.58,1,.9l1.41,1.41.53-.53c.62.67,1.49,1.06,2.44,1.06.42,0,.83-.08,1.22-.23l1.97-.77c-.73.9-.97,2.16-.52,3.32.5,1.29,1.72,2.12,3.11,2.12.42,0,.83-.08,1.22-.23l6.85-2.68c1.71-.67,2.56-2.61,1.89-4.32-.5-1.29-1.72-2.12-3.11-2.12-.42,0-.83.08-1.21.23l-1.97.77c.19-.23.34-.49.47-.77.36-.82.38-1.72.05-2.55-.5-1.29-1.72-2.12-3.11-2.12-.42,0-.83.08-1.21.23l-3.37,1.32-.39-.39c-2.08-2.08-4.58-3.71-7.3-4.77v-1.89h32.21m0-2h-32.35c-1.03,0-1.86.83-1.86,1.86v3.44c2.89.9,5.61,2.49,7.89,4.77l-3.43,3.43c-1.32-1.32-2.84-2.33-4.46-3.03v2.55c0,6.94,5.63,12.57,12.57,12.57h16.69c5.89,0,10.66-4.75,10.71-10.62,0-.06,0-.12.01-.18l.83-7.4c.44-3.94-2.64-7.39-6.61-7.39h0Zm-26.77,14.86c-.53,0-1.04-.32-1.25-.85-.27-.69.07-1.46.76-1.73l6.85-2.68c.16-.06.32-.09.49-.09.53,0,1.04.32,1.25.85.27.69-.07,1.46-.76,1.73l-6.85,2.68c-.16.06-.32.09-.49.09h0Zm5.77,4.45c-.53,0-1.04-.32-1.25-.85-.27-.69.07-1.46.76-1.73l6.85-2.68c.16-.06.32-.09.49-.09.53,0,1.04.32,1.25.85.27.69-.07,1.46-.76,1.73l-6.85,2.68c-.16.06-.32.09-.49.09h0Z" style="fill: #fbd2d7;"/>
        </g>
        <path d="m310.72,237.28c-2.28-2.28-5-3.87-7.89-4.77-3.25-1.01-6.72-1.15-10.03-.4-3.45.77-6.72,2.5-9.39,5.17l3.43,3.43c1.72-1.72,3.78-2.92,5.96-3.59,3.28-1.01,6.86-.82,10.03.56,1.62.7,3.14,1.71,4.46,3.03l3.43-3.43Z" style="fill: #fbd2d7;"/>
      </g>
    </g>
    <g>
      <path d="m93.91,244.02c2.02-12.57,7.68-26.26,15.8-37.56,5.27-7.33,11.39-13.39,17.72-17.51,6.76-4.4,13.68-6.64,20.58-6.64s13.82,2.23,20.58,6.64c6.32,4.12,12.45,10.17,17.72,17.51,1.57,2.19,3.04,4.48,4.42,6.82-.84-3.46-1.17-6.97-.85-10.54-10.81-14.73-25.58-25.5-41.87-25.5-30.05,0-54.94,36.65-59.32,67.24,1.37-.14,3.16-.3,5.23-.46Z" style="fill: #fff;"/>
      <path d="m204.59,237.95c-.06-.11-.08-.16-.11-.2-.22-.26-.44-.52-.66-.79-1.91-2.29-3.71-4.65-5.38-7.1.98,2.79,1.8,5.59,2.47,8.36,1.72-.09,2.85-.15,3.17-.17.16,0,.32-.07.5-.1Z" style="fill: #fff;"/>
      <path d="m201.35,265.06c-2.13,6.87-6.49,11.94-13.31,15.56-8.81,4.68-21.91,6.95-40.04,6.95s-31.23-2.27-40.04-6.95c-4.79-2.54-8.36-5.81-10.81-9.9-2.18.12-4.05.22-5.59.3,8.34,17.25,30.46,21.64,56.44,21.64,28.87,0,52.97-5.41,58.7-27.88-1.69.09-3.47.19-5.35.29Z" style="fill: #fff;"/>
    </g>
    <g>
      <path d="m114.2,267.36c7.65,6.19,19.94,7.97,33.8,7.97,15.91,0,29.75-2.35,36.87-11.02l-70.67,3.04Z" style="fill: #fbd2d7;"/>
      <path d="m189.42,240.94c-3.33-21.28-20.6-46.4-41.42-46.4-22,0-40.04,28.05-41.85,49.98l83.26-3.58Zm-21.62-25.67c2.43-.38,4.85,1.31,5.29,3.7.18.98-.31,1.82-1.2,2.04-.88.21-1.64-.2-1.94-1.14-.26-.82-.66-1.45-1.59-1.32-.99.13-1.22.85-1.22,1.76,0,.96-.67,1.59-1.57,1.62-.91.03-1.6-.64-1.7-1.64-.24-2.36,1.54-4.63,3.94-5.01Zm-16.19,9.94c.9-.2,1.52.17,1.96.99.21.38.64.65.97.97.22-.4.56-.77.65-1.2.17-.81.58-1.36,1.38-1.49.8-.13,1.41.23,1.76.99.03.07.04.15.09.2.32.27.65.53.97.8.2-.34.52-.66.59-1.03.19-1.05.78-1.71,1.66-1.68.94.02,1.62.77,1.66,1.82.07,2.1-1.44,3.89-3.88,4.22-1.37-.72-2.82.23-4.39.6-2.15.5-4.24-1.1-4.56-3.22-.15-.95.3-1.77,1.14-1.96Zm-10.46-6.07c2.43-.37,4.85,1.33,5.27,3.71.17.94-.28,1.75-1.1,2-.9.27-1.72-.14-2.04-1.13-.26-.81-.67-1.44-1.6-1.31-.92.12-1.2.78-1.21,1.67,0,1.05-.65,1.69-1.58,1.72-.9.02-1.59-.65-1.69-1.66-.24-2.36,1.55-4.63,3.95-5Z" style="fill: #fbd2d7;"/>
    </g>
    <g>
      <path d="m90.07,271.09c-.15-.04-.29-.11-.44-.12-6.15-.55-11.32-5.35-12.18-11.31-.93-6.48,2.51-12.45,8.49-14.78,2.1-.82,37.5-2.72,39.71-2.78.62-.02.95-.15,1.13-.84.86-3.37,3.66-5.68,7.15-5.89,4.38-.27,8.77-.51,13.15-.71,3.64-.17,6.75,1.97,7.91,5.43.16.48.36.6.83.57,2.26-.13,46.02-2.48,48.28-2.6.16,0,.32-.07.5-.1-.06-.11-.08-.16-.11-.2-.22-.26-.44-.52-.66-.79-4.56-5.48-8.58-11.29-11.26-17.94-2.62-6.51-3.63-13.2-2.11-20.14,1.28-5.81,4.19-10.45,9.72-13.1,3.31-1.59,6.85-2.17,10.5-1.97,4.42.23,7.82,2.27,10.14,6.01.83,1.35,1.39,2.87,2.07,4.32.18.38.33.77.55,1.12,2.89,4.7,4.22,9.76,3.51,15.27-.27,2.11-.96,4.09-2.3,5.79-.91,1.17-2.16,1.58-3.58,1.32-1.37-.24-2.33-1.06-2.79-2.39-.14-.39-.19-.82-.29-1.23-.51-2.23-1.55-4.11-3.77-5.01-1.47-.6-3.07-.87-4.39-1.85-.04-.03-.1-.04-.15-.06-.4-.16-.68-.04-.75.4-.09.6-.2,1.19-.21,1.79-.06,2.82.93,5.36,2.6,7.54,2.12,2.77,4.41,5.42,6.75,8,3.21,3.55,6.53,6.99,9.19,11,2.96,4.47,4.87,9.28,4.9,14.73.04,5.99-3.64,11.07-9.36,12.88-.65.2-1.3.37-1.95.56-18.69,1.01-112.09,6.08-130.78,7.09Zm129.2-76.98c-1.3-3.1-3.18-5.57-6.52-6.58-5.35-1.62-12.78.86-16.09,5.35-2.03,2.74-2.95,5.89-3.34,9.22-.8,6.85.94,13.18,3.98,19.23,2.97,5.91,6.96,11.12,11.33,16.05.19.22.37.44.58.64.6.59.97,1.27.64,2.12-.35.9-1.13,1.06-2,1.09-2.89.12-5.78.34-8.67.38-1.57.02-44.01,2.52-44.68,4.29-1.05,2.81-3.46,4.3-6.49,4.51-4.38.3-8.77.51-13.15.73-3.57.17-6.6-1.8-7.88-5.14-.19-.5-.42-.63-.91-.58-1.64.19-36.55,1.93-38.12,2.36-4.99,1.37-8.05,6.33-7.2,11.36.86,5.11,5.41,8.78,10.63,8.51,9.93-.52,94.55-5.12,104.48-5.66,7.74-.42,15.49-.8,23.23-1.28,4.08-.25,7.1-2.23,8.88-5.96,1.09-2.29.96-4.7.6-7.12-.66-4.47-2.7-8.36-5.48-11.8-2.95-3.65-6.16-7.1-9.3-10.6-2.32-2.59-4.63-5.16-6.34-8.22-1.63-2.93-2.4-6.03-1.97-9.39.27-2.1,1.29-3.52,2.95-3.84.72-.14,1.5-.01,2.35,0,.98-4.74,3.61-8.13,8.48-9.67Zm-71.69,53c2.68-.16,4.6-2.24,4.44-4.83-.15-2.55-2.28-4.42-4.9-4.28-4.28.22-8.56.45-12.84.7-2.63.15-4.53,2.23-4.4,4.79.13,2.59,2.26,4.45,4.94,4.32,2.15-.11,4.3-.23,6.46-.35,2.1-.11,4.2-.22,6.3-.34Zm73.51-49.22c-.3-.54-.62-.59-1.14-.43-3.18.94-5.72,4.12-5.89,7.45,0,.19.22.52.41.58,3.88,1.28,5.97,4.08,6.82,7.95.03.13.05.26.1.38.08.18.19.35.29.52.18-.13.42-.21.53-.38.93-1.35,1.34-2.9,1.5-4.5.09-.86.07-1.73.09-2.18-.23-3.61-1.16-6.59-2.71-9.38Z" style="fill: #fff;"/>
      <path d="m141.28,247.45c2.1-.11,4.2-.22,6.3-.34,2.68-.16,4.6-2.24,4.44-4.83-.15-2.55-2.28-4.42-4.9-4.28-4.28.22-8.56.45-12.84.7-2.63.15-4.53,2.23-4.4,4.79.13,2.59,2.26,4.45,4.94,4.32,2.15-.11,4.3-.23,6.46-.35Z" style="fill: #fbd2d7;"/>
      <path d="m223.81,207.27c-.23-3.61-1.16-6.59-2.71-9.38-.3-.54-.62-.59-1.14-.43-3.18.94-5.72,4.12-5.89,7.45,0,.19.22.52.41.58,3.88,1.28,5.97,4.08,6.82,7.95.03.13.05.26.1.38.08.18.19.35.29.52.18-.13.42-.21.53-.38.93-1.35,1.34-2.9,1.5-4.5.09-.86.07-1.73.09-2.18Z" style="fill: #fbd2d7;"/>
      <path d="m206.22,190.12c2.49-.15,4.69,1.78,4.85,4.27.17,2.58-1.8,4.81-4.35,4.93-2.51.12-4.66-1.81-4.81-4.32-.15-2.56,1.76-4.73,4.31-4.89Zm-.96,4.63c.02.68.61,1.21,1.31,1.17.67-.04,1.18-.58,1.17-1.24-.02-.68-.61-1.21-1.31-1.17-.67.04-1.18.58-1.17,1.24Z" style="fill: #fff;"/>
    </g>
  </g>
  <path d="m446.16,321.27c-135.63-34.44-274.96-34.42-417.8.06-2.16.52-4.34-.8-4.87-2.96h0c-.53-2.18.8-4.38,2.98-4.91,59.38-14.32,119.62-22.8,179.12-25.2,83.15-3.36,163.55,5.11,242.57,25.16,2.17.55,3.48,2.77,2.92,4.94h0c-.56,2.16-2.75,3.45-4.91,2.9Z" style="fill: #fff;"/>
  <path d="m0,316.1c0-3.14,2.65-5.6,5.79-5.43,10.9.6,20.85,2.53,30.19,6.33,6.5,2.65,14.93,4.14,23.65,4.07,8.76-.07,16.94-1.09,24.17-4,15.54-6.26,32.83-8.14,51.35-5.4,6.47.96,12.74,2.74,18.49,4.69,11.82,4,24.17,6,37.77,3.79,4.81-.78,9.44-2.23,13.63-3.78,15.26-5.67,31.83-7.29,49.45-4.7,6.48.95,12.74,2.73,18.5,4.66,11.78,3.96,24.06,6.06,37.65,3.84,4.82-.79,9.48-2.18,13.67-3.74,15.54-5.81,32.43-7.41,50.32-4.67,6.73,1.03,13.48,2.84,19.08,5.14,13.24,5.42,35.67,5.44,48.7-.21,8.46-3.67,18.19-5.49,28.84-6.01,3.12-.15,5.75,2.31,5.75,5.43v.12c0,2.79-2.11,5.1-4.89,5.41-7.57.84-14.03,3.04-20.73,5.28-22.39,7.46-45.23,7.52-67.15-.67-13.75-5.14-27.91-6.01-42.86-2.36-6.07,1.48-11.27,4.06-17.4,5.44-20.86,4.68-41.03,4.06-59.84-3.27-13.24-5.16-27.4-5.78-42.01-2.2-6.07,1.48-11.29,4.04-17.41,5.43-20.84,4.73-41.05,4.15-59.86-3.16-13.42-5.22-27.68-5.85-42.43-2.23-6.63,1.63-12.4,4.39-19.13,5.82-19.44,4.11-38.56,3.64-56.12-2.99-6.94-2.62-14.14-4.52-22.22-5.2-2.81-.24-4.96-2.59-4.96-5.41h0Z" style="fill: #fbd2d7;"/>
  <path d="m416.2,355.82v.12c0,3.04-2.28,5.56-5.3,5.94-6.87.85-12.95,2.66-18.79,5.2-19.29,8.39-49.28,8.4-68.52-.05-16.15-7.09-32.88-7.03-49.54-.41-19.59,7.78-40.2,8.98-61.71,3.28-4.08-1.08-7.65-2.85-11.52-4.23-14.56-5.21-29.44-5.47-43.62.08-13.39,5.24-27.43,8.28-43.54,7.5-9.65-.47-18.76-1.95-26.67-5.37-6.83-2.95-13.96-5.35-22.34-6.09-3.06-.27-5.38-2.88-5.38-5.95h0c0-3.4,2.83-6.13,6.22-5.98,8.78.38,16.98,2.02,24.55,4.99,7.35,2.88,14.82,5.53,23.77,6.11,10.96.71,20.94-.69,30.01-4.63,15.38-6.69,32.56-8.26,50.65-5.3,6.32,1.04,12.35,3.04,18.03,5.08,9.57,3.45,19.46,5.61,30.83,4.91,7.35-.45,13.77-2.11,19.76-4.61,19.18-7.99,39.54-8.83,60.69-3.26,5.07,1.34,9.75,3.23,14.48,4.99,12.3,4.58,34.34,3.34,43.58-1.66,7.76-4.21,17.47-6.09,28.08-6.62,3.41-.17,6.27,2.56,6.27,5.98Z" style="fill: #fbd2d7;"/>
  <path d="m472.23,88.23c1.93,0,1.93-3,0-3s-1.93,3,0,3h0Z" style="fill: #fff;"/>
  <path d="m3.26,51.77c14.08-11.26,29.68-19.37,47.87-21.37,13.37-1.47,25.72,1.73,37.15,9.84-2.89-9.74-11.54-18.54-22.73-23.3-3.64-1.55-6.69-3.39-7.15-7.74-.49-4.62,2.28-7.17,5.88-9.19h4.88c9.02,4.18,17.73,8.91,24.21,16.68,3.7,4.44,6.89,9.31,10.44,14.17,9.87-14.05,22.89-23.74,39.49-28.38C146.57,1.56,149.87.82,153.15,0h7.81c3.39,2.44,6.54,5.12,5.4,9.92-1.08,4.58-4.29,6.43-8.9,6.81-12.97,1.06-24.12,6.22-33.28,15.53-.73.75-1.32,1.64-1.74,2.17,8.64-2.14,17.3-4.91,26.17-6.35,15.4-2.49,30.47-.34,44.96,5.46,5.44,2.18,7.62,6.53,5.79,11.11-1.89,4.76-6.06,6.43-11.72,4.37-14.07-5.12-28.41-6.6-43.2-3.79.15.41.2.91.36.95,21.52,4.66,33.74,19.49,42.02,38.53,1.68,3.86,3.05,7.89,4.16,11.96,1.51,5.52-.83,9.92-5.59,11.31-4.61,1.34-8.9-1.36-10.49-6.93-2.76-9.64-6.77-18.63-13.27-26.36-9.91-11.78-26.6-15.73-39.13-9.22,5.1,3.46,10.38,6.59,15.14,10.36,20.87,16.49,31.4,38.85,35.97,64.48.51,2.88.95,5.79,1.09,8.7.25,5.21-2.71,8.76-7.35,9.16-4.6.4-8.2-2.57-9.13-7.61-1.07-5.75-1.71-11.6-3.19-17.23-6.24-23.76-19.04-42.54-41.73-53.55-1.57-.76-3.23-1.35-5.27-2.2-1.14,5.11-1.7,9.96-3.33,14.41-3.57,9.74-7.32,19.45-11.65,28.87-7.39,16.09-15.23,31.97-22.95,47.91-11.58,23.9-17.34,49.42-19.17,75.64-1.55,22.28-1.25,44.69-1.69,67.05l-16.64,4c.39-22.56.14-49.16,1.62-71.65,1.74-26.53,7.18-52.51,18.5-76.85,9.65-20.77,19.76-41.33,29.5-62.06,4.63-9.86,8.3-20.05,8.84-31.46-15.59-2.89-29.14,1.19-41.15,10.79-11.57,9.25-19.39,21.32-25.33,34.74-2.29,5.16-6.51,7.01-10.99,5.15-4.52-1.87-6.39-6.27-4.32-11.36,7.5-18.52,19-33.96,35.6-45.38,10.39-7.15,22.02-10.76,35.5-11.73-9.39-8.08-19.39-10.04-30.24-8.29-13.68,2.2-25.32,8.89-36.24,17.08-4.16,3.11-8.82,2.6-11.79-.93-3.03-3.6-2.8-8.53,1.18-11.71Z" style="fill: #fff;"/>
  <path d="m195.21,168.03c-.11,0-.27-.02-.49-.05-.22-.03-.38-.05-.5-.05-.25,0-.61,0-1.1.02-.48.01-.85.02-1.11.02,0,.3,0,.7,0,1.2,0,.63-.01,1.02-.01,1.18,0,.46-.17.84-.5,1.14-.33.3-.75.45-1.24.45s-.91-.15-1.24-.46c-.33-.31-.5-.69-.5-1.16,0,.12,0-.67-.03-2.35-.68.04-1.28.05-1.79.05-.65,0-1.22-.12-1.72-.36-.63-.3-.94-.73-.94-1.29,0-.71.29-1.18.88-1.39.32-.12.92-.18,1.79-.18.52,0,1.12-.02,1.79-.05,0-.09,0-.27-.01-.55s-.01-.5-.01-.67c0-1.82.62-2.73,1.85-2.73.48,0,.9.15,1.26.44.36.3.53.67.53,1.13,0,.15-.02.37-.05.68-.03.31-.05.54-.05.69v.96c.22,0,.38.01.49.01.18,0,.46,0,.83-.03.37-.02.65-.03.84-.03,1.86,0,2.79.56,2.79,1.69,0,.45-.16.83-.47,1.16-.34.34-.76.52-1.27.52Z" style="fill: #fbd2d7;"/>
  <path d="m290.66,142.88c-.08-.08-.18-.2-.31-.38-.13-.18-.24-.31-.32-.39-.18-.18-.44-.43-.79-.76-.35-.33-.62-.59-.8-.77-.21.22-.49.5-.85.85-.45.44-.73.71-.85.83-.32.32-.71.47-1.16.45-.45-.02-.85-.21-1.2-.56s-.54-.75-.56-1.2c-.02-.45.13-.84.46-1.17-.08.08.46-.48,1.64-1.68-.51-.46-.94-.87-1.31-1.23-.46-.46-.78-.95-.97-1.47-.23-.66-.15-1.18.24-1.58.5-.5,1.04-.62,1.6-.37.31.14.77.52,1.39,1.14.37.37.8.78,1.31,1.23.06-.06.19-.2.38-.4s.34-.36.46-.48c1.29-1.29,2.37-1.5,3.24-.63.34.34.53.74.58,1.2.04.46-.1.85-.42,1.17-.1.1-.27.25-.51.44-.24.19-.41.34-.52.45l-.67.69c.14.16.25.27.33.35.13.13.33.32.6.57.27.25.48.44.61.58,1.31,1.31,1.57,2.37.78,3.17-.32.32-.7.48-1.15.49-.48,0-.9-.17-1.26-.53Z" style="fill: #fbd2d7;"/>
  <path d="m206.52,129.58c2.13.06,3.8,1.89,3.69,4.06-.1,2.03-1.87,3.69-3.87,3.63-2.08-.06-3.83-1.99-3.71-4.08.11-2.06,1.83-3.66,3.89-3.6Z" style="fill: #fff;"/>
  <path d="m250.21,213.08c-.11,0-.27-.02-.49-.05-.22-.03-.38-.05-.5-.05-.25,0-.61,0-1.1.02-.48.01-.85.02-1.11.02,0,.3,0,.7,0,1.2,0,.63-.01,1.02-.01,1.18,0,.46-.17.84-.5,1.14-.33.3-.75.45-1.24.45s-.91-.15-1.24-.46c-.33-.31-.5-.69-.5-1.16,0,.12,0-.67-.03-2.35-.68.04-1.28.05-1.79.05-.65,0-1.22-.12-1.72-.36-.63-.3-.94-.73-.94-1.29,0-.71.29-1.18.88-1.39.32-.12.92-.18,1.79-.18.52,0,1.12-.02,1.79-.05,0-.09,0-.27-.01-.55s-.01-.5-.01-.67c0-1.82.62-2.73,1.85-2.73.48,0,.9.15,1.26.44.36.3.53.67.53,1.13,0,.15-.02.37-.05.68-.03.31-.05.54-.05.69v.96c.22,0,.38.01.49.01.18,0,.46,0,.83-.03.37-.02.65-.03.84-.03,1.86,0,2.79.56,2.79,1.69,0,.45-.16.83-.47,1.16-.34.34-.76.52-1.27.52Z" style="fill: #fff;"/>
  <path d="m233.99,137.44c.77.34,1.54.68,2.31,1.01,5.24,2.27,8.3,7.95,7.21,13.41-1.15,5.8-5.95,9.86-11.77,9.94-5.81.09-10.99-3.97-12.14-9.51-1.19-5.7,1.71-11.4,7-13.79.75-.34,1.49-.71,2.23-1.07,1.72,0,3.44,0,5.16,0Zm1.97,12.35c.08-2.31-1.97-4.48-4.3-4.56-2.37-.08-4.43,1.9-4.49,4.31-.06,2.49,1.77,4.42,4.24,4.49,2.43.06,4.47-1.84,4.56-4.23Z" style="fill: #fbd2d7;"/>
  <path d="m273,168.47c-.03.05-.07.1-.1.16-.18.34-.46.54-.84.54-.4,0-.68-.19-.88-.53-.24-.39-.51-.76-.77-1.13-.06-.08-.15-.14-.2-.18-.12.48-.17.97-.36,1.41-.45,1.05-1.29,1.63-2.43,1.7-1.44.09-2.57-1.25-2.39-2.76.13-1.07.68-1.86,1.6-2.4.13-.08.26-.14.42-.23-.72-.67-1.54-1.07-2.5-1.18-.16-.02-.32-.01-.48-.03-.55-.05-.94-.47-.93-.99.02-.54.44-.93,1.02-.92,1.8.03,3.32.72,4.51,2.06.44.5.88.88,1.53,1.12,1.25.47,2.07,1.45,2.66,2.63.04.07.08.14.12.21v.51Zm-4.89-1.74c-.49.14-.88.36-1.08.82-.17.4-.08.83.18.94.27.12.73-.14.89-.5.18-.41.14-.82.01-1.26Z" style="fill: #fff;"/>
  <path d="m368.21,180.88c-.11,0-.27-.02-.49-.05-.22-.03-.38-.05-.5-.05-.25,0-.61,0-1.1.02-.48.01-.85.02-1.11.02,0,.3,0,.7,0,1.2,0,.63-.01,1.02-.01,1.18,0,.46-.17.84-.5,1.14-.33.3-.75.45-1.24.45s-.91-.15-1.24-.46c-.33-.31-.5-.69-.5-1.16,0,.12,0-.67-.03-2.35-.68.04-1.28.05-1.79.05-.65,0-1.22-.12-1.72-.36-.63-.3-.94-.73-.94-1.29,0-.71.29-1.18.88-1.39.32-.12.92-.18,1.79-.18.52,0,1.12-.02,1.79-.05,0-.09,0-.27-.01-.55s-.01-.5-.01-.67c0-1.82.62-2.73,1.85-2.73.48,0,.9.15,1.26.44.36.3.53.67.53,1.13,0,.15-.02.37-.05.68-.03.31-.05.54-.05.69v.96c.22,0,.38.01.49.01.18,0,.46,0,.83-.03.37-.02.65-.03.84-.03,1.86,0,2.79.56,2.79,1.69,0,.45-.16.83-.47,1.16-.34.34-.76.52-1.27.52Z" style="fill: #fff;"/>
  <path d="m134.75,161.37c.06,1.98-1.67,3.88-3.6,3.96-2.2.09-4.03-1.57-4.1-3.72-.07-2.12,1.7-3.91,3.87-3.91,2.09,0,3.77,1.6,3.83,3.67Z" style="fill: #fbd2d7;"/>
</svg>