<?xml version="1.0" encoding="utf-8"?>
<!-- Generator: Adobe Illustrator 27.2.0, SVG Export Plug-In . SVG Version: 6.00 Build 0)  -->
<svg version="1.1" id="Layer_1" xmlns="http://www.w3.org/2000/svg" xmlns:xlink="http://www.w3.org/1999/xlink" x="0px" y="0px"
	 viewBox="0 0 489.8 105.2" style="enable-background:new 0 0 489.8 105.2;" xml:space="preserve">
<path style="fill:#FFFFFF;" stroke-opacity="0" d="M489.8,105.2l-0.6-16.5c-1.3-36-45-52.9-70.3-27.3c-16.6,16.8-43.9,16.2-59.7-1.3l-19.3-21.3
	c-11.4-12.6-30.5-14.4-44-4.1l-8.2,6.3c-16.3,12.3-39.8,2.6-42.5-17.7C242,0.6,214-8,198.8,8.8L161,50.7
	c-14.8,16.3-40.6,15.6-54.4-1.6C92.8,32,66.9,31.2,52.2,47.5l-51.5,57c-0.2,0.2-0.4,0.4-0.6,0.6h489.7V105.2z"/>
</svg>
