<?xml version="1.0" standalone="no"?>
<!DOCTYPE svg PUBLIC "-//W3C//DTD SVG 20010904//EN"
 "http://www.w3.org/TR/2001/REC-SVG-20010904/DTD/svg10.dtd">
<svg version="1.0" xmlns="http://www.w3.org/2000/svg"
 width="227.000000pt" height="227.000000pt" viewBox="0 0 227.000000 227.000000"
 preserveAspectRatio="xMidYMid meet">
<metadata>
Created by potrace 1.14, written by Peter Selinger 2001-2017
</metadata>
<g transform="translate(0.000000,227.000000) scale(0.100000,-0.100000)"
fill="#000000" stroke="none">
<path d="M991 2246 c-36 -13 -61 -40 -61 -67 0 -10 18 -39 40 -65 44 -50 46
-65 12 -71 -78 -11 -166 -81 -272 -214 -40 -49 -93 -104 -118 -121 -48 -33
-129 -57 -174 -52 -41 4 -52 -17 -45 -94 3 -37 8 -74 11 -82 4 -9 -20 -51 -59
-105 -36 -49 -92 -144 -125 -210 -100 -202 -140 -352 -140 -523 0 -129 12
-191 55 -277 96 -194 298 -301 665 -350 77 -10 530 -13 625 -4 186 17 319 44
417 84 270 110 382 274 377 553 -4 219 -88 465 -233 681 l-57 84 25 26 c50 52
70 117 73 233 1 59 -2 110 -7 113 -5 3 -26 -3 -47 -13 -54 -28 -147 -45 -204
-38 -105 13 -196 64 -360 201 -110 93 -176 129 -222 122 -15 -2 -30 -1 -32 3
-2 3 -6 33 -10 65 -9 90 -10 94 -28 115 -19 23 -55 25 -106 6z"/>
</g>
</svg>
