<?xml version="1.0" encoding="UTF-8"?>
<svg id="Layer_1" data-name="Layer 1" xmlns="http://www.w3.org/2000/svg" viewBox="0 0 214.01 225.66">
  <defs>
    <style>
      .cls-1 {
        fill: #fbd2d7;
      }

      .cls-2 {
        fill: #e2bdc2;
      }

      .cls-3 {
        fill: #1a1a1a;
      }

      .cls-4 {
        fill: #fff;
        stroke-width: 2px;
      }

      .cls-4, .cls-5, .cls-6 {
        stroke: #1a1a1a;
        stroke-miterlimit: 10;
      }

      .cls-5 {
        fill: #556b2f;
      }

      .cls-5, .cls-6 {
        stroke-width: 6px;
      }

      .cls-6 {
        fill: #778959;
      }
    </style>
  </defs>
  <path class="cls-1" d="m214.01,163.16c0,51.09-47.91,62.5-107,62.5S.01,214.25.01,163.16,47.92,40.66,107.01,40.66s107,71.41,107,122.5Z"/>
  <path class="cls-2" d="m30.01,163.16c0-48.74,37.49-115.98,85.07-122.05-2.66-.29-5.35-.45-8.07-.45C47.92,40.66.01,112.07.01,163.16s47.91,62.5,107,62.5c2.71,0,5.4-.02,8.07-.08-47.57-1.06-85.07-13.68-85.07-62.42Z"/>
  <path class="cls-3" d="m107.01,49.66c.87,0,1.8.02,2.93.08,12.11.55,24.2,4.49,35.94,11.72,10.91,6.71,21.44,16.33,30.46,27.81,17.43,22.18,28.4,50.19,28.65,73.09v.44c0,.12.01.24.01.36,0,20.31-8.33,33.75-26.22,42.28-15.82,7.55-39.3,11.22-71.78,11.22s-55.97-3.67-71.78-11.22c-17.89-8.53-26.22-21.97-26.22-42.28,0-23.45,11.25-52.11,29.37-74.79,9.36-11.71,20.26-21.39,31.53-27.99,12.16-7.12,24.64-10.72,37.1-10.72m0-9C47.91,40.66,0,112.07,0,163.16s47.91,62.5,107,62.5,107-11.41,107-62.5c0-.3,0-.6-.01-.9h0c-.54-50.05-46.44-118.91-103.65-121.52h0c-1.11-.05-2.22-.08-3.34-.08h0Z"/>
  <path d="m172.94,163.5c-.7,2.1-4.24.69-8.7-.8s-8.13-2.5-7.43-4.59,5.51-4.48,9.96-3,6.86,6.29,6.16,8.38h.01Z"/>
  <path d="m113.45,159.6c.94,2-2.59,3.43-6.83,5.44s-7.59,3.82-8.54,1.83.88-7.05,5.12-9.06c4.24-2.01,9.3-.21,10.25,1.79Z"/>
  <path class="cls-4" d="m150.89,175.72c.27,2.68-6.2,9.53-14.45,10.36s-15.16-4.68-15.43-7.36,6.2-1.53,14.45-2.36,15.16-3.32,15.43-.64Z"/>
  <path class="cls-5" d="m114.92,24.59c-3.76-.67-7.18-1.02-10.31-1.11l-1.94-17.52c-.3-2.09-2.39-3.42-4.41-2.82l-5.67,1.69c-2.02.6-3.04,2.86-2.16,4.77,0,0,7.72,6.21,8.83,14.02-33.76,2.77-29.81,41.3-64.98,39.93,0,0-4.94,31.24,28.95,27.35,2.93,27.13,35.68,17.26,51.94,5.95,16.25-11.31,27.32-67.32-.24-72.26h0Z"/>
  <path class="cls-6" d="m106.51,24.81c-17.03,11.85-22.24,36.54,1.96,60.19,24.2,23.65,43.25,16.9,48.99,8.79s39.04-1.12,34.29-42.61c-43.51,21.66-68.22-38.21-85.25-26.36h0Z"/>
</svg>