<?xml version="1.0" encoding="UTF-8"?>
<svg id="Layer_1" data-name="Layer 1" xmlns="http://www.w3.org/2000/svg" viewBox="0 0 580.51 309.1">
  <defs>
    <style>
      .cls-1 {
        fill: #fbd2d7;
      }

      .cls-2 {
        fill: #e2bdc2;
      }

      .cls-3, .cls-4 {
        fill: #1a1a1a;
      }

      .cls-5, .cls-6 {
        fill: #556b2f;
      }

      .cls-7 {
        fill: #fff;
        stroke-width: 2px;
      }

      .cls-7, .cls-6, .cls-8 {
        stroke: #1a1a1a;
        stroke-miterlimit: 10;
      }

      .cls-6, .cls-8 {
        stroke-width: 6px;
      }

      .cls-8 {
        fill: #778959;
      }

      .cls-4 {
        font-family: BalooBhai-Regular, 'Baloo Bhai';
        font-size: 200px;
      }
    </style>
  </defs>
  <path class="cls-3" d="m46.69,105.03c5.47,0,10.83.78,16.1,2.32,5.26,1.54,9.83,3.85,13.69,6.92,4-2.66,8.51-4.86,13.51-6.59,5-1.73,11.03-2.59,18.1-2.58,5.07,0,10.03.68,14.9,2.02,4.86,1.34,9.2,3.44,12.99,6.31,3.8,2.87,6.82,6.68,9.09,11.41,2.26,4.74,3.39,10.5,3.38,17.3l-.07,63c-1.33.4-3.43.8-6.3,1.19-2.87.4-5.84.59-8.9.59-2.93,0-5.57-.21-7.9-.61-2.33-.4-4.3-1.21-5.9-2.41-1.6-1.2-2.83-2.83-3.69-4.9-.87-2.07-1.29-4.77-1.29-8.1l.05-47.8c0-4-1.13-6.9-3.39-8.7-2.27-1.8-5.33-2.71-9.2-2.71-1.87,0-3.87.43-6,1.29-2.14.87-3.74,1.76-4.8,2.69.13.54.2,1.04.2,1.5,0,.47,0,.9,0,1.3l-.07,66.6c-1.47.4-3.63.8-6.5,1.19-2.87.4-5.77.59-8.7.59-2.93,0-5.57-.21-7.9-.61-2.33-.4-4.3-1.21-5.9-2.41-1.6-1.2-2.83-2.83-3.69-4.9-.87-2.07-1.29-4.77-1.29-8.1l.05-47.8c0-4-1.23-6.9-3.69-8.7-2.47-1.8-5.43-2.71-8.9-2.71-2.4,0-4.47.36-6.2,1.09-1.74.73-3.2,1.43-4.4,2.1l-.08,70.2c-1.33.4-3.43.8-6.3,1.19-2.87.4-5.84.59-8.9.59-2.93,0-5.57-.21-7.9-.61-2.33-.4-4.3-1.21-5.9-2.41-1.6-1.2-2.83-2.83-3.69-4.9C.42,196.82,0,194.12,0,190.78l.07-60.4c0-3.6.77-6.46,2.31-8.6,1.53-2.13,3.64-4.13,6.31-5.99,4.53-3.19,10.17-5.79,16.91-7.78,6.73-1.99,13.77-2.98,21.1-2.98Z"/>
  <g>
    <path class="cls-1" d="m348.84,163.16c0,51.09-47.91,62.5-107,62.5s-107-11.41-107-62.5,47.91-122.5,107-122.5,107,71.41,107,122.5Z"/>
    <path class="cls-2" d="m164.84,163.16c0-48.74,37.49-115.98,85.07-122.05-2.66-.29-5.35-.45-8.07-.45-59.09,0-107,71.41-107,122.5s47.91,62.5,107,62.5c2.71,0,5.4-.02,8.07-.08-47.57-1.06-85.07-13.68-85.07-62.42Z"/>
    <path class="cls-3" d="m241.84,49.66c.87,0,1.8.02,2.93.08,12.11.55,24.2,4.49,35.94,11.72,10.91,6.71,21.44,16.33,30.46,27.81,17.43,22.18,28.4,50.19,28.65,73.09v.44c0,.12.01.24.01.36,0,20.31-8.33,33.75-26.22,42.28-15.82,7.55-39.3,11.22-71.78,11.22s-55.97-3.67-71.78-11.22c-17.89-8.53-26.22-21.97-26.22-42.28,0-23.45,11.25-52.11,29.37-74.79,9.36-11.71,20.26-21.39,31.53-27.99,12.16-7.12,24.64-10.72,37.1-10.72m0-9c-59.09,0-107,71.41-107,122.5s47.91,62.5,107,62.5,107-11.41,107-62.5c0-.3,0-.6-.01-.9h0c-.54-50.05-46.44-118.91-103.65-121.52h0,0c-1.11-.05-2.22-.08-3.34-.08h0Z"/>
    <text class="cls-4" transform="translate(168.62 205.5)"><tspan x="0" y="0" xml:space="preserve">    </tspan></text>
    <path d="m307.77,163.5c-.7,2.1-4.24.69-8.7-.8s-8.13-2.5-7.43-4.59,5.51-4.48,9.96-3,6.86,6.29,6.16,8.38Z"/>
    <path d="m248.28,159.6c.94,2-2.59,3.43-6.83,5.44s-7.59,3.82-8.54,1.83.88-7.05,5.12-9.06c4.24-2.01,9.3-.21,10.25,1.79Z"/>
    <path class="cls-7" d="m285.72,175.72c.27,2.68-6.2,9.53-14.45,10.36-8.25.83-15.16-4.68-15.43-7.36s6.2-1.53,14.45-2.36c8.25-.83,15.16-3.32,15.43-.64Z"/>
    <path class="cls-6" d="m249.75,24.59c-3.76-.67-7.18-1.02-10.31-1.11l-1.94-17.52c-.3-2.09-2.39-3.42-4.41-2.82l-5.67,1.69c-2.02.6-3.04,2.86-2.16,4.77,0,0,7.72,6.21,8.83,14.02-33.76,2.77-29.81,41.3-64.98,39.93,0,0-4.94,31.24,28.95,27.35,2.93,27.13,35.68,17.26,51.94,5.95,16.25-11.31,27.32-67.32-.24-72.26Z"/>
    <path class="cls-8" d="m241.34,24.81c-17.03,11.85-22.24,36.54,1.96,60.19s43.25,16.9,48.99,8.79,39.04-1.12,34.29-42.61c-43.51,21.66-68.22-38.21-85.25-26.36Z"/>
  </g>
  <g>
    <path class="cls-3" d="m384.06,132.2c-3.33,0-6.5.53-9.5,1.59-3,1.07-5.6,2.63-7.8,4.69-2.2,2.07-3.97,4.63-5.31,7.69-1.34,3.07-2.01,6.67-2.01,10.8,0,8.27,2.35,14.47,7.08,18.61,4.73,4.14,10.49,6.21,17.29,6.22,4,0,7.47-.46,10.4-1.39,2.93-.93,5.53-1.92,7.8-2.99,2.66,1.87,4.66,3.91,5.99,6.11,1.33,2.2,1.99,4.84,1.99,7.9,0,5.47-2.61,9.7-7.81,12.69-5.2,3-12.41,4.49-21.61,4.48-8.4,0-16-1.25-22.8-3.72-6.8-2.47-12.63-5.95-17.49-10.42-4.86-4.47-8.62-9.84-11.28-16.11-2.66-6.27-3.99-13.2-3.98-20.8,0-8.8,1.45-16.5,4.33-23.1,2.87-6.6,6.78-12.02,11.72-16.29,4.94-4.26,10.64-7.45,17.11-9.58,6.47-2.12,13.3-3.19,20.5-3.18,9.6.01,17,1.75,22.19,5.22,5.2,3.47,7.79,7.94,7.79,13.41,0,2.53-.61,4.9-1.81,7.1-1.2,2.2-2.6,4.1-4.21,5.7-2.27-1.07-5-2.11-8.2-3.11-3.2-1-6.67-1.51-10.4-1.51Z"/>
    <path class="cls-3" d="m522.98,205.55c-1.33.4-3.44.8-6.3,1.19-2.87.4-5.83.59-8.9.59-2.93,0-5.57-.21-7.9-.61-2.33-.4-4.3-1.21-5.9-2.41-1.6-1.2-2.83-2.83-3.7-4.9-.87-2.07-1.29-4.77-1.29-8.1l.05-44.4c0-5.47-1.36-9.3-4.09-11.5-2.73-2.2-6.1-3.31-10.1-3.31-2.67,0-5.2.33-7.6.99-2.4.67-4.34,1.46-5.8,2.39l-.08,70c-1.33.4-3.44.8-6.3,1.19-2.87.4-5.83.59-8.9.59-2.93,0-5.57-.21-7.9-.61-2.33-.4-4.3-1.21-5.9-2.41-1.6-1.2-2.83-2.83-3.7-4.9-.87-2.07-1.29-4.77-1.29-8.1l.13-116c1.47-.26,3.63-.63,6.5-1.09,2.87-.46,5.77-.69,8.7-.69,2.93,0,5.57.21,7.9.61,2.33.4,4.3,1.2,5.9,2.41,1.6,1.2,2.83,2.84,3.7,4.9.86,2.07,1.29,4.77,1.29,8.1l-.02,19.6c1.73-.66,4.37-1.43,7.9-2.29,3.53-.86,7.43-1.29,11.7-1.29,13.2.01,23.5,3.33,30.89,9.93,7.39,6.61,11.08,16.45,11.07,29.51l-.07,60.6Z"/>
    <path class="cls-3" d="m543.31,81.57c0-5.07,1.71-9.33,5.12-12.79,3.4-3.46,7.91-5.19,13.51-5.19,5.6,0,10.1,1.75,13.49,5.21,3.4,3.47,5.09,7.74,5.08,12.81,0,5.07-1.71,9.33-5.11,12.79-3.4,3.47-7.91,5.19-13.51,5.19-5.6,0-10.1-1.74-13.49-5.21-3.4-3.47-5.09-7.74-5.09-12.81Zm0,0c0-5.07,1.71-9.33,5.12-12.79,3.4-3.46,7.91-5.19,13.51-5.19,5.6,0,10.1,1.75,13.49,5.21,3.4,3.47,5.09,7.74,5.08,12.81,0,5.07-1.71,9.33-5.11,12.79-3.4,3.47-7.91,5.19-13.51,5.19-5.6,0-10.1-1.74-13.49-5.21-3.4-3.47-5.09-7.74-5.09-12.81Zm35.47,124.04c-1.47.26-3.64.63-6.5,1.09-2.87.46-5.77.69-8.7.69-2.93,0-5.57-.21-7.9-.61-2.33-.4-4.3-1.2-5.9-2.41-1.6-1.2-2.83-2.83-3.7-4.9-.87-2.07-1.29-4.77-1.29-8.1l.09-81.4c1.47-.26,3.63-.63,6.5-1.09,2.87-.46,5.77-.69,8.7-.69,2.93,0,5.57.21,7.9.61,2.33.4,4.3,1.2,5.9,2.41s2.83,2.84,3.7,4.9c.86,2.07,1.29,4.77,1.29,8.1l-.09,81.4Z"/>
    <path class="cls-5" d="m543.31,81.57c0-5.07,1.71-9.33,5.12-12.79,3.4-3.46,7.91-5.19,13.51-5.19,5.6,0,10.1,1.75,13.49,5.21,3.4,3.47,5.09,7.74,5.08,12.81,0,5.07-1.71,9.33-5.11,12.79-3.4,3.47-7.91,5.19-13.51,5.19-5.6,0-10.1-1.74-13.49-5.21-3.4-3.47-5.09-7.74-5.09-12.81Zm0,0c0-5.07,1.71-9.33,5.12-12.79,3.4-3.46,7.91-5.19,13.51-5.19,5.6,0,10.1,1.75,13.49,5.21,3.4,3.47,5.09,7.74,5.08,12.81,0,5.07-1.71,9.33-5.11,12.79-3.4,3.47-7.91,5.19-13.51,5.19-5.6,0-10.1-1.74-13.49-5.21-3.4-3.47-5.09-7.74-5.09-12.81Z"/>
  </g>
</svg>